<?xml version="1.0" encoding="utf-8"?>
<!-- Uploaded to: SVG Repo, www.svgrepo.com, Generator: SVG Repo Mixer Tools -->
<svg width="800px" height="800px" viewBox="-160.62 0 456.708 456.708" xmlns="http://www.w3.org/2000/svg"><defs><style>.a{fill:#b3b3b3;}.b{fill:#ffffff;}.c{fill:#7a7473;}.d{fill:#211715;}.e{fill:#79c6e0;}</style></defs><path class="a" d="M24.623,228.321c.521,24.036,7.289,177.263,7.5,186.127,4.805,1.613,23.6,1.727,34.8-.414,11.2,2.14,29.975,2.027,34.8.417l.479-.16c.284-10.367,6.982-162.066,7.5-185.97Z"/><path class="b" d="M62.055,417.436c-.01-.89-.02-1.77-.02-2.66"/><path class="b" d="M73.465,414.966c0,.82-.01,1.65-.02,2.47"/><path class="b" d="M41.79,420.2a3.576,3.576,0,0,1-.223-.452,27.529,27.529,0,0,0,1.337-4.134,135.938,135.938,0,0,0,20.711-1.035c-.006.826-.006,1.487-.006,1.487a23.244,23.244,0,0,1-16.267,6.474,8.188,8.188,0,0,1-4.187-.945A4.085,4.085,0,0,1,41.79,420.2Z"/><path class="b" d="M93.788,419.391a28.113,28.113,0,0,1-1.2-3.837,139.571,139.571,0,0,1-20.7-.767c.005.722.005,1.274.005,1.274a23.244,23.244,0,0,0,16.267,6.474,8.188,8.188,0,0,0,4.187-.945,4.02,4.02,0,0,0,1.586-1.841C93.882,419.63,93.835,419.511,93.788,419.391Z"/><path class="b" d="M96.634,49.006a4.349,4.349,0,0,1,3.48-1.018,4.106,4.106,0,0,1,2.953,1.963,5.8,5.8,0,0,1,.608,2.336,17.4,17.4,0,0,1-1.774,9.224,11.058,11.058,0,0,1-2.86,3.753,3.46,3.46,0,0,1-4.282.4,25.985,25.985,0,0,1-1.133,4.091c-.887,2.371-5.408,9.952-11.35,13.909.13,2.141-.242,5.251.636,7.422,1.114,2.752,11.374,8.481,11.786,8.663,0,0-8.149,18-29.562,18s-27.271-18-27.271-18c.412-.182,11.73-5.911,12.843-8.663.891-2.2.5-5.373.644-7.519a26.2,26.2,0,0,1-5.915-5.271A29.467,29.467,0,0,1,39.5,66.339l-.429.117a4.156,4.156,0,0,1-3.768-1.192,11.046,11.046,0,0,1-2.86-3.753,17.4,17.4,0,0,1-1.774-9.224,5.788,5.788,0,0,1,.608-2.336,4.1,4.1,0,0,1,2.953-1.963,4.351,4.351,0,0,1,3.48,1.018s1.1-28.647,28.3-28.647C97.329,20.359,96.634,49.006,96.634,49.006Z"/><path class="c" d="M68.047,2.142c-6.535-.282-14.425.6-17.863,3.576L44.8,9.4c-6.006,2.742-10.243,9.3-12.048,16.065-1.859,6.964-1.876,17.057.738,22.707a4,4,0,0,1,.743-.184,4.351,4.351,0,0,1,3.48,1.018l.959.866C39.8,46.491,40.822,44,41.4,42.215a22.111,22.111,0,0,1,3.2-6.281,25.661,25.661,0,0,1,8.6-7.659c3.912-2.316,6.654-3.039,11.592-3.035,4.877,0,9.49,1.169,12.405,1.279,2.466.093,7.315.33,11.2,2.816a16.177,16.177,0,0,1,3.869,4.109c2.55,4.356,4.33,12.192,4.423,15.532a4.28,4.28,0,0,1,3.4-.987c2.175-7.145,1.587-16.2-.526-21.6-1.453-3.714-3.68-8-8.191-10.476l-4.141-3.664c-1.859-3.776-5.744-7.008-10.851-8.832A31.359,31.359,0,0,0,68.047,2.142Z"/><path class="d" d="M64.821,19.543c.233.082.46.177.691.262-.543-.2-.139-.056-.026,0s.223.1.334.159a13.325,13.325,0,0,1,1.233.694c.208.133.412.27.612.414.084.059.166.121.249.182.334.243-.309-.257-.016-.01.378.317.749.639,1.1.989a13.712,13.712,0,0,1,.948,1.053c.284.351-.121-.17-.01-.016.061.083.123.164.183.248q.215.3.414.612a13.208,13.208,0,0,1,.724,1.287c.054.11.107.222.158.334l.05.112q.129.294-.056-.138a4,4,0,0,0,.261.692,2,2,0,1,0,3.857-1.064,15.747,15.747,0,0,0-9.64-9.663,2.011,2.011,0,0,0-2.46,1.4,2.051,2.051,0,0,0,1.4,2.461Z"/><path class="d" d="M77.24,21.786c.172.175.331.359.492.543.129.16.09.108-.118-.158.043.055.084.111.125.168.071.1.14.2.207.3a8.63,8.63,0,0,1,.71,1.34l-.2-.477a8.776,8.776,0,0,1,.576,2.116l-.072-.531a8.442,8.442,0,0,1,.032,1.88,2,2,0,0,0,.586,1.414,2,2,0,0,0,2.828,0,2.266,2.266,0,0,0,.586-1.414,10.267,10.267,0,0,0-2.922-8.011,2,2,0,0,0-2.828,2.828Z"/><path class="d" d="M86.982,30.749a13.946,13.946,0,0,1,3.851,4.231,27.459,27.459,0,0,1,1.909,4.663A50.034,50.034,0,0,1,94.1,44.78a23.628,23.628,0,0,1,.582,4.023c.126,2.562,4.127,2.578,4,0a40.513,40.513,0,0,0-2.171-10.5,32.836,32.836,0,0,0-2.224-5.346,16.587,16.587,0,0,0-4.476-5.04,2.066,2.066,0,0,0-2.829,0,2.013,2.013,0,0,0,0,2.828Z"/><path class="d" d="M64.794,23.24c-6.821-.34-13.349,2.808-18.26,7.433a26.749,26.749,0,0,0-6.353,9.108c-1.292,3.105-2.365,6.37-3.438,9.556-.823,2.446,3.039,3.495,3.857,1.064.957-2.844,1.982-5.676,3.016-8.493A22.334,22.334,0,0,1,49.1,33.755c4.191-4.074,9.8-6.809,15.7-6.515,2.573.128,2.566-3.872,0-4Z"/><path class="d" d="M88.96,11.241C83.16-.177,67.885-1.251,56.789.9A17.4,17.4,0,0,0,48.77,4.3C46.8,5.959,49.637,8.776,51.6,7.132a13.912,13.912,0,0,1,5.524-2.227,38.851,38.851,0,0,1,7.559-.8c4.648-.091,9.473.162,13.673,2.335a16.007,16.007,0,0,1,7.152,6.822c1.166,2.3,4.618.274,3.454-2.019Z"/><path class="d" d="M92.911,64.123a15.825,15.825,0,0,1-.951,4.325c-.068.205-.14.409-.209.614-.013.038-.219.579-.076.224s-.082.174-.11.232c-.065.135-.13.27-.2.4A35.579,35.579,0,0,1,88.3,74.857c-2.705,3.716-6.341,7.612-10.888,8.931-2.468.715-1.418,4.576,1.063,3.857,5.533-1.6,9.8-6.052,13.124-10.559,2.81-3.811,5.114-8.123,5.313-12.963.106-2.574-3.894-2.569-4,0Z"/><path class="d" d="M36.474,60.639c.7,5.6,2.108,11.119,5.2,15.912,3.568,5.532,9.2,10.477,15.879,11.529a2.064,2.064,0,0,0,2.461-1.4,2.016,2.016,0,0,0-1.4-2.46c-5.83-.918-10.661-5.147-13.711-10.041a33.943,33.943,0,0,1-4.433-13.543,2.063,2.063,0,0,0-2-2,2.012,2.012,0,0,0-2,2Z"/><path class="d" d="M98.048,50.421a2.26,2.26,0,0,1,3.292.54,5.479,5.479,0,0,1,.394,2.43,14.561,14.561,0,0,1-.209,2.926,15.436,15.436,0,0,1-2.069,5.469A7.628,7.628,0,0,1,97.824,63.7a1.516,1.516,0,0,1-1.595.421c-2.49-.664-3.552,3.193-1.063,3.857,3.185.849,5.68-1.2,7.417-3.676a18.607,18.607,0,0,0,3.016-8.388c.341-2.79.334-6.325-1.925-8.354a6.4,6.4,0,0,0-8.454.035,2.016,2.016,0,0,0,0,2.829,2.044,2.044,0,0,0,2.828,0Z"/><path class="d" d="M39.126,47.592a6.406,6.406,0,0,0-8.455-.035c-2.318,2.083-2.262,5.734-1.894,8.582a18.317,18.317,0,0,0,3.159,8.4c1.8,2.461,4.469,4.55,7.669,3.845a2,2,0,1,0-1.063-3.857c-1.368.3-2.831-1.5-3.492-2.492a15.218,15.218,0,0,1-2.2-5.563,14.481,14.481,0,0,1-.242-2.88,5.773,5.773,0,0,1,.4-2.631,2.26,2.26,0,0,1,3.292-.54,2.055,2.055,0,0,0,2.828,0,2.017,2.017,0,0,0,0-2.829Z"/><path class="d" d="M43.79,7.673c-6.86,3.228-11.239,10.469-13.057,17.6a44.943,44.943,0,0,0-1.3,11.342,32.959,32.959,0,0,0,1.711,11.091c.882,2.4,4.749,1.36,3.858-1.064-2.273-6.174-2.034-13.637-.5-19.958,1.542-6.345,5.208-12.691,11.3-15.559,2.328-1.1.3-4.544-2.018-3.454Z"/><path class="d" d="M90.364,17.642c4.418,2.5,6.97,7.329,8.164,12.129a34.5,34.5,0,0,1-.223,17.2c-.686,2.485,3.172,3.546,3.857,1.063a38.585,38.585,0,0,0,.137-19.668c-1.487-5.665-4.714-11.232-9.916-14.18-2.242-1.271-4.26,2.183-2.019,3.454Z"/><path class="d" d="M80.456,84.686c.029,2.391-.2,4.966.687,7.241a8.219,8.219,0,0,0,2.5,3.156,56.408,56.408,0,0,0,7.992,5.471,26.426,26.426,0,0,0,2.329,1.319,2.059,2.059,0,0,0,2.736-.718,2.015,2.015,0,0,0-.718-2.736A44.3,44.3,0,0,1,90.8,95.343q-.98-.628-1.938-1.289c-.3-.211-.606-.424-.906-.642q-.237-.171-.471-.346l-.2-.148c-.245-.184.362.29-.042-.032-.516-.412-1.026-.831-1.5-1.289-.193-.186-.382-.378-.56-.58-.074-.084-.141-.172-.215-.255.239.272.156.237.024,0-.056-.1-.112-.2-.164-.3.21.417-.036-.192-.079-.355a6.677,6.677,0,0,1-.24-1.5c-.093-1.3-.039-2.609-.055-3.914-.032-2.572-4.032-2.579-4,0Z"/><path class="d" d="M49.158,84.686c-.015,1.18.026,2.36-.033,3.538a9.326,9.326,0,0,1-.155,1.421c-.055.268-.143.527-.2.793-.1.443.143-.126-.051.153-.054.079-.111.168-.158.252-.186.337.28-.29.048-.064-.2.2-.381.413-.586.606-.222.209-.452.407-.687.6-.127.105-.257.207-.386.309.35-.276-.059.04-.191.137a66.314,66.314,0,0,1-7.956,4.83c-.739.4-1.477.812-2.241,1.158a2.014,2.014,0,0,0-.717,2.736,2.048,2.048,0,0,0,2.736.718,63.083,63.083,0,0,0,6-3.271A49.405,49.405,0,0,0,48.9,95.794a12.006,12.006,0,0,0,3.188-3.042,8.7,8.7,0,0,0,.986-3.78c.134-1.424.068-2.857.086-4.286.032-2.574-3.968-2.576-4,0Z"/><path class="b" d="M3.346,135.532q.12-1.064.253-2.157c.671-4.638,1.384-8.766,3.047-12.609,2.925-6.754,9.152-11.443,15.673-14.855,6.813-3.564,14.608-7.527,20.349-9.962a27,27,0,0,1,5.271-6.932,56.219,56.219,0,0,0,16.222,11.306c.336.152.711.338.819.691h2.545c.108-.353.482-.539.818-.691A56.223,56.223,0,0,0,84.566,89.017a27.749,27.749,0,0,1,5.653,7.638l21.327,12.559c16.257,12.374,23.4,39.37,21.667,60.063-.257,3.072-1.47,6.778-4.9,7.444-4.462.867-10.379-1.208-13.879-3.51a38.289,38.289,0,0,1-4.518-3.619c.035.59.057.955.057.955.164,3.08.888,47.26.592,56.889l-.027.882c-2.966,0-44.96,0-86.914.008.015-7.992,1.312-41,1.292-45.56l.007-.192a63.672,63.672,0,0,1-15.862-4.515c-3.151-1.365-5.647-4.77-6.3-9.551C1.757,161.174,1.62,150.776,3.346,135.532Z"/><path class="c" d="M21.632,450.336q-.171-.222-.322-.46a8.619,8.619,0,0,1-.571-7.223,23.7,23.7,0,0,1,3.707-6.468Q29.812,428.858,35.788,422c1.553-1.781,3.308-3.637,5.631-4.075a3.493,3.493,0,0,0,1.736,3.663,8.188,8.188,0,0,0,4.187.945,23.244,23.244,0,0,0,16.267-6.474c-.027,4.893.022,6.522,0,11.417a10.281,10.281,0,0,1-.429,3.53c-1.006,2.721-3.99,4.032-6.384,5.67-6.228,4.262-9.508,12.038-16.034,15.828a16.85,16.85,0,0,1-15.577.558A9.812,9.812,0,0,1,21.632,450.336Z"/><path class="c" d="M113.868,450.336q.171-.222.322-.46a8.619,8.619,0,0,0,.571-7.223,23.7,23.7,0,0,0-3.707-6.468Q105.687,428.858,99.712,422c-1.553-1.781-3.309-3.637-5.631-4.075a3.493,3.493,0,0,1-1.736,3.663,8.188,8.188,0,0,1-4.187.945,23.244,23.244,0,0,1-16.267-6.474c.027,4.893-.022,6.522,0,11.417a10.257,10.257,0,0,0,.429,3.53c1.006,2.721,3.989,4.032,6.383,5.67,6.229,4.262,9.509,12.038,16.035,15.828a16.849,16.849,0,0,0,15.577.558A9.812,9.812,0,0,0,113.868,450.336Z"/><path class="d" d="M40.976,415.074a28.969,28.969,0,0,1-1.33,4.14,2,2,0,0,0,.2,1.542,2,2,0,0,0,2.736.717l.4-.313a1.99,1.99,0,0,0,.514-.882,29.01,29.01,0,0,0,1.33-4.14,2.1,2.1,0,0,0-.2-1.541,2,2,0,0,0-3.656.477Z"/><path class="d" d="M64.055,417.436c-.01-.886-.02-1.773-.02-2.66a2.062,2.062,0,0,0-.586-1.414,2.222,2.222,0,0,0-1.414-.586,2.021,2.021,0,0,0-1.415.586,2.077,2.077,0,0,0-.585,1.414c0,.887.01,1.774.02,2.66a2.068,2.068,0,0,0,.585,1.414,2.222,2.222,0,0,0,1.415.586,2.02,2.02,0,0,0,1.414-.586,2.058,2.058,0,0,0,.586-1.414Z"/><path class="d" d="M95.853,419.224a29.946,29.946,0,0,1-1.34-4.21,2,2,0,0,0-3.857,1.064,30.03,30.03,0,0,0,1.34,4.21,2.238,2.238,0,0,0,.919,1.195,2,2,0,0,0,2.737-.717,1.942,1.942,0,0,0,.2-1.542Z"/><path class="d" d="M71.465,414.966c0,.824-.01,1.647-.02,2.47a2.054,2.054,0,0,0,2,2,2.02,2.02,0,0,0,1.414-.586,2.1,2.1,0,0,0,.586-1.414c.01-.823.019-1.646.02-2.47a2.062,2.062,0,0,0-.586-1.414,2.222,2.222,0,0,0-1.414-.586,2.021,2.021,0,0,0-1.415.586,2.077,2.077,0,0,0-.585,1.414Z"/><path class="d" d="M23.358,449.327c-3.808-5.2,2.531-11.841,5.537-15.767q3.113-4.068,6.437-7.969c1.8-2.119,3.739-5.088,6.618-5.736l-2.46-2.46a5.752,5.752,0,0,0,3.831,6.481c2.549,1,5.577.744,8.223.335a24.934,24.934,0,0,0,13.479-6.736l-3.414-1.414c-.021,4.171.161,8.372-.02,12.539a5.232,5.232,0,0,1-2.664,4.331c-1.682,1.155-3.44,2.142-5.018,3.448-6.031,4.986-9.516,13.653-17.6,15.818-4.388,1.176-10.244.445-13.264-3.275a2.014,2.014,0,0,0-2.829,0,2.047,2.047,0,0,0,0,2.828c3.105,3.824,8.9,5.29,13.634,4.9a20.087,20.087,0,0,0,12.643-6.133c3.129-3.12,5.561-6.863,8.731-9.945a32.054,32.054,0,0,1,5.126-3.789,11.208,11.208,0,0,0,4.526-4.68c1.125-2.589.743-5.735.736-8.5-.006-2.514-.017-5.029,0-7.543a2.022,2.022,0,0,0-3.414-1.414,20.945,20.945,0,0,1-9.252,5.188,19.961,19.961,0,0,1-6,.689c-1.058-.042-3.927-.374-3.6-2.066a2.027,2.027,0,0,0-2.46-2.46c-3.53.794-5.846,3.787-8.074,6.4q-3.965,4.651-7.662,9.522c-3.945,5.178-10.072,12.83-5.246,19.425a2.059,2.059,0,0,0,2.736.717A2.014,2.014,0,0,0,23.358,449.327Z"/><path class="d" d="M115.6,451.346c4.826-6.6-1.3-14.247-5.246-19.425q-3.632-4.767-7.507-9.34c-2.27-2.669-4.624-5.772-8.229-6.583a2.027,2.027,0,0,0-2.46,2.46c.328,1.694-2.56,2.025-3.6,2.066a19.975,19.975,0,0,1-6-.689,20.947,20.947,0,0,1-9.251-5.188,2.022,2.022,0,0,0-3.414,1.414c.011,2.231,0,4.462,0,6.693a46.818,46.818,0,0,0,.187,7.492c.785,4.9,5.648,6.363,8.971,9.2,3.371,2.876,5.841,6.61,8.811,9.863,3.186,3.49,7.1,6.3,11.851,7.09,5.3.887,12-.25,15.574-4.648a2.059,2.059,0,0,0,0-2.828,2.015,2.015,0,0,0-2.829,0c-2.662,3.279-7.678,4.25-11.681,3.619-4.2-.663-7.427-3.123-10.211-6.2-2.671-2.95-4.942-6.264-7.86-8.987a31.156,31.156,0,0,0-4.779-3.552c-1.426-.895-3.136-1.871-3.743-3.539a11.8,11.8,0,0,1-.293-3.944q0-1.7,0-3.4c.007-2.286.013-4.573,0-6.86l-3.414,1.414a24.92,24.92,0,0,0,13.479,6.736c2.647.409,5.673.663,8.223-.335A5.75,5.75,0,0,0,96.01,417.4l-2.461,2.46c2.882.648,4.817,3.613,6.619,5.736q3.313,3.9,6.437,7.969c3.007,3.929,9.345,10.562,5.536,15.767a2.014,2.014,0,0,0,.718,2.736A2.046,2.046,0,0,0,115.6,451.346Z"/><path class="d" d="M22.856,229.626q.435,10.527.848,21.054.86,21.445,1.715,42.893,1.011,25.383,2.016,50.766.882,22.32,1.749,44.642c.316,8.174.659,16.348.916,24.524.009.314.019.629.027.943a2.062,2.062,0,0,0,1.468,1.929,27.6,27.6,0,0,0,6.284.977c3.074.247,6.164.312,9.248.3a113.6,113.6,0,0,0,20.331-1.686c2.526-.476,1.456-4.332-1.064-3.858a107.639,107.639,0,0,1-19.267,1.544c-2.992.017-5.989-.046-8.973-.273a21.8,21.8,0,0,1-5.5-.856l1.468,1.928c-.174-7.087-.508-14.173-.781-21.257q-.826-21.5-1.68-43-1-25.386-2.014-50.771-.888-22.275-1.78-44.55-.487-12.166-.979-24.334c-.012-.3-.025-.608-.037-.913-.106-2.565-4.107-2.578-4,0Z"/><path class="d" d="M65.347,252.467q0,9.586-.007,19.171-.009,18.411-.019,36.82Q65.309,330.1,65.3,351.74q-.009,19.226-.019,38.453-.006,11.336-.01,22.672v1.169c0,2.574,4,2.578,4,0q0-10.011.008-20.023.009-18.63.019-37.258.01-21.654.022-43.306.011-19.034.02-38.066,0-10.937.009-21.873v-1.041c0-2.574-4-2.578-4,0Z"/><path class="d" d="M107.677,228.324c.074,2.2-.058,4.423-.124,6.624-.14,4.654-.311,9.308-.484,13.96q-.8,21.442-1.715,42.88-1.059,25.543-2.154,51.085-.96,22.5-1.919,45.006c-.358,8.453-.747,16.9-1.039,25.36-.013.351-.024.7-.034,1.052l1.468-1.929a22.244,22.244,0,0,1-5.71.993c-2.958.237-5.931.305-8.9.295a108.127,108.127,0,0,1-19.61-1.545c-2.516-.473-3.594,3.381-1.064,3.858a114.006,114.006,0,0,0,20.674,1.687c3.058.01,6.122-.061,9.169-.317a27.841,27.841,0,0,0,6.5-1.113,2.07,2.07,0,0,0,1.468-1.929c.2-7.32.576-14.638.884-21.954q.919-21.792,1.857-43.584,1.091-25.561,2.162-51.123.925-22.191,1.794-44.386c.306-8.014.749-16.049.78-24.072,0-.282,0-.566-.008-.848-.085-2.568-4.086-2.579-4,0Z"/><path class="d" d="M23.751,230.321h86.963c2.574,0,2.578-4,0-4H23.751c-2.573,0-2.578,4,0,4Z"/><path class="d" d="M81.06,114.646c3.119-4.27,5.9-8.744,8.631-13.269.669-1.108,1.37-2.2,2.016-3.323.88-1.524.171-2.62-.638-3.994A28.976,28.976,0,0,0,85.98,87.6a2.034,2.034,0,0,0-2.828,0,53.6,53.6,0,0,1-9.286,7.442,54.635,54.635,0,0,1-5.082,2.864c-1.655.817-3.717,1.648-3.212,3.946.337,1.529,1.792,2.623,2.853,3.67,1.7,1.675,3.408,3.338,5.1,5.014a62.072,62.072,0,0,1,4.389,4.512c1.641,1.987,4.456-.857,2.829-2.828a86.506,86.506,0,0,0-6.306-6.4c-1.186-1.164-2.375-2.323-3.555-3.492-.409-.405-.819-.809-1.22-1.223-.118-.121-.228-.256-.353-.37-.343-.313.218.193.212.274l-.273,1.009c-.2.378.226-.028.462-.139.426-.2.85-.4,1.271-.612q1.105-.551,2.184-1.154,2.315-1.293,4.5-2.8a58.381,58.381,0,0,0,8.31-6.889H83.152a26.9,26.9,0,0,1,5.34,7.234V95.646c-3.521,5.74-6.909,11.538-10.886,16.981a2.015,2.015,0,0,0,.717,2.737A2.047,2.047,0,0,0,81.06,114.646Z"/><path class="d" d="M54.9,112.627c-3.977-5.443-7.366-11.241-10.887-16.981v2.019a26.886,26.886,0,0,1,5.341-7.234H46.525a58.183,58.183,0,0,0,8.309,6.889q2.1,1.442,4.32,2.7,1.078.608,2.184,1.165.631.318,1.271.618.27.127.543.251.452.267.1-.027l-.273-1.009c-.007-.086.579-.592.237-.3-.121.1-.226.241-.336.355-.391.405-.792.8-1.192,1.2-1.2,1.193-2.416,2.375-3.625,3.562a86.309,86.309,0,0,0-6.306,6.4c-1.627,1.97,1.187,4.815,2.828,2.828a122.054,122.054,0,0,1,8.855-8.9,18.5,18.5,0,0,0,3.067-3.194A3,3,0,0,0,65.171,98.6c-1.71-.874-3.433-1.682-5.088-2.664A53.92,53.92,0,0,1,49.353,87.6a2.036,2.036,0,0,0-2.828,0,28.868,28.868,0,0,0-4.986,6.282c-.764,1.279-1.665,2.5-.861,3.974.655,1.2,1.43,2.348,2.136,3.518,2.729,4.525,5.511,9,8.631,13.269a2.06,2.06,0,0,0,2.736.718A2.015,2.015,0,0,0,54.9,112.627Z"/><path class="d" d="M107.974,170.547c.3,5.922.262,11.879.353,17.806.145,9.506.269,19.014.3,28.521.013,3.52.042,7.044-.064,10.562-.077,2.575,3.923,2.573,4,0,.224-7.484.053-14.991-.024-22.476q-.141-13.611-.395-27.222c-.046-2.4-.05-4.8-.173-7.191-.132-2.561-4.133-2.577-4,0Z"/><path class="d" d="M22.917,182.766c.015,5.082-.26,10.175-.427,15.252-.24,7.3-.493,14.606-.695,21.911-.077,2.8-.163,5.595-.17,8.393-.007,2.574,3.993,2.578,4,0,.035-12.978.752-25.966,1.14-38.937.066-2.2.158-4.413.152-6.619-.008-2.573-4.008-2.578-4,0Z"/><path class="d" d="M22.231,127.2c.474,3.936.491,7.948.588,11.906.151,6.183.213,12.367.261,18.551.02,2.572,4.02,2.578,4,0-.048-6.184-.11-12.368-.261-18.551-.1-3.958-.114-7.97-.588-11.906a2.062,2.062,0,0,0-2-2,2.013,2.013,0,0,0-2,2Z"/><path class="b" d="M98.432,83.03a22.715,22.715,0,0,1,8.941,9.344c3.8,7.592,4.147,16.583-.087,23.2-1.165,1.82-4.083,4.962-4.084,6.991l-1.256,1.688c-7.372,2.755-20.535,3.093-25.176,1.92l-.117-1.134a10.5,10.5,0,0,1-6.205-3.106,16.1,16.1,0,0,1-3.239-5.695c-2.974-8.16-3.057-17.906.556-25.868,2.51-5.529,8.162-8.588,12.161-9.8A23.6,23.6,0,0,1,98.432,83.03Z"/><path class="b" d="M57.376,131.319a4.971,4.971,0,0,0-.431-3.5,2.123,2.123,0,0,0-2.135-1.322c-.7.17-1.126.867-1.472,1.5-1.83-1.195-4.175-2.043-6.178-1.168a5,5,0,0,0-2.371,6.047,7.606,7.606,0,0,0,5.117,4.568"/><path class="e" d="M103.013,124.037c1.514.444,3.115,2.754,3.773,4.142a44.365,44.365,0,0,1,3.78,25.449,27.145,27.145,0,0,1-4.455,11.918c-3.235,4.473-8.283,7.405-13.6,8.9a52.637,52.637,0,0,1-16.429,1.427c-4.352-.18-9.2-.855-11.907-4.27l-5.658-2.456c-.238-2.53-.365-5.184.666-7.507a9.813,9.813,0,0,1,4.827-4.714,14.219,14.219,0,0,1,3.549-1.119,22.118,22.118,0,0,1,.355-2.6,9.424,9.424,0,0,1-1.032-.5c-3.47-1.914-6.208-4.893-8.88-7.82l-5.929-6.5,4.136-4.536a2.659,2.659,0,0,1,1.218-.9,2.576,2.576,0,0,1,1.833.477,35.566,35.566,0,0,1,5.919,4.225c1.5-4.675,5.228-8.236,8.819-11.584l.508-.473,2.262.572c4.641,1.173,17.8.835,25.176-1.92"/><path class="d" d="M105.2,122.563c.073-1.365,1.81-3.244,2.68-4.406a22.06,22.06,0,0,0,3.073-5.541,25.081,25.081,0,0,0,.8-13.665A26.067,26.067,0,0,0,96.41,79.8a24.9,24.9,0,0,0-22.722,1.386,19.928,19.928,0,0,0-8.342,9.8,34.677,34.677,0,0,0-2.3,14.15c.211,5.33,1.349,11.249,4.186,15.847a12.729,12.729,0,0,0,13.3,5.876c2.528-.465,1.457-4.321-1.063-3.857-9.2,1.694-11.961-10.235-12.382-17.019a32.3,32.3,0,0,1,1.608-12.565,15.914,15.914,0,0,1,6.588-8.511,20.938,20.938,0,0,1,18.947-1.7A21.972,21.972,0,0,1,107.677,99a21.013,21.013,0,0,1-.822,13.152c-1.531,3.536-5.439,6.387-5.653,10.407-.137,2.572,3.864,2.564,4,0Z"/><path class="d" d="M72.585,124.658c-3.844,3.588-7.62,7.368-9.332,12.466l3.342-.882a41.5,41.5,0,0,0-4-3.1c-1.288-.87-2.813-2.04-4.408-2.184-1.8-.163-2.893.94-4.022,2.179l-3.5,3.838a2.05,2.05,0,0,0,0,2.829c2.359,2.583,4.7,5.183,7.08,7.748a37.264,37.264,0,0,0,7.043,6.228,9.579,9.579,0,0,0,4.422,1.748,6.139,6.139,0,0,0,4.217-1.643,21.091,21.091,0,0,0,4.809-5.813c1.346-2.2-2.112-4.214-3.454-2.018a17.29,17.29,0,0,1-3.731,4.628c-.9.745-1.519,1.06-2.645.558a15.448,15.448,0,0,1-3.245-2.089,49.613,49.613,0,0,1-5.452-5.368q-3.111-3.4-6.216-6.808v2.829l2.546-2.792c.424-.465.846-.932,1.272-1.4.23-.25.558-.644.6-.649.336-.04,1.232.707,1.52.886q.774.481,1.522,1a32.853,32.853,0,0,1,2.819,2.213,2.028,2.028,0,0,0,3.343-.883c1.473-4.385,5.012-7.629,8.3-10.7,1.886-1.76-.947-4.584-2.829-2.829Z"/><path class="d" d="M77.385,154.969a12.39,12.39,0,0,0-7.625-1.447,17.523,17.523,0,0,0-7.611,2.127,11.5,11.5,0,0,0-4.893,5.458,16.822,16.822,0,0,0-.737,8.038,2.054,2.054,0,0,0,2,2,2.015,2.015,0,0,0,2-2,14.51,14.51,0,0,1,.36-6.388,7.384,7.384,0,0,1,3.289-3.654,12.972,12.972,0,0,1,5.592-1.581c1.914-.14,3.935-.164,5.606.9,2.177,1.388,4.186-2.073,2.019-3.454Z"/><path class="d" d="M59.3,131.851c.493-2.178.08-4.855-1.7-6.379a3.664,3.664,0,0,0-3.5-.855,4.6,4.6,0,0,0-2.5,2.368l2.737-.718c-2.076-1.331-4.681-2.249-7.148-1.571a6.451,6.451,0,0,0-4.4,4.607c-1.271,4.7,2.316,8.719,6.577,10.066a2.018,2.018,0,0,0,2.46-1.4,2.044,2.044,0,0,0-1.4-2.46c-.2-.065-.406-.134-.607-.209-.132-.052-.114-.044.053.026-.085-.037-.168-.076-.251-.116a8.835,8.835,0,0,1-1.042-.591c-.067-.044-.493-.359-.189-.119-.143-.113-.282-.233-.416-.357a6.424,6.424,0,0,1-.743-.795c.246.318-.111-.192-.153-.26-.1-.154-.178-.313-.262-.473-.061-.129-.055-.108.016.065q-.069-.169-.126-.342-.078-.237-.132-.48c-.029-.129-.026-.561-.03-.126,0-.165-.021-.333-.02-.5s.014-.334.026-.5c-.034.49.025-.1.052-.208.039-.162.092-.319.138-.478q.038-.119.084-.234-.144.336,0,.027c.084-.141.154-.288.243-.426.063-.1.376-.432.075-.116.11-.116.228-.23.337-.348.285-.311-.236.107.1-.086.142-.081.278-.169.425-.243-.351.176.245-.07.34-.094s.194-.047.293-.064c-.171.021-.184.025-.039.013.234-.014.464-.006.7,0,.406.012-.163-.066.27.04.2.049.4.092.6.151s.4.127.591.2q.339.132.1.042l.19.09c.43.23.854.456,1.266.72A2.021,2.021,0,0,0,55.065,129a6.982,6.982,0,0,1,.379-.634c-.113.163-.074.09.032-.02-.137.143-.156.043.014,0a.974.974,0,0,1-.681.019c.13.035.21.133.04-.006.037.03.358.38.22.207-.088-.11.254.47.227.405-.048-.112.071.22.082.259.041.136.073.273.1.411.076.332-.01-.241.019.1.013.142.017.283.016.425,0,.036-.01.416,0,.263s-.072.357-.073.361a2,2,0,1,0,3.857,1.064Z"/><path class="d" d="M102.481,125.966c.848.307,1.517,1.4,1.97,2.126a20.6,20.6,0,0,1,1.631,3.462,44.635,44.635,0,0,1,2.374,8.511,39.748,39.748,0,0,1-.7,17.232,20.366,20.366,0,0,1-9.344,12.5c-5.025,2.97-10.873,3.977-16.639,4.132a52.377,52.377,0,0,1-9.209-.355c-2.668-.405-5.2-1.254-6.971-3.388-1.642-1.985-4.458.859-2.828,2.829,3.946,4.769,10.958,4.9,16.637,4.938,6.732.04,13.591-.824,19.644-3.938a24.265,24.265,0,0,0,11.923-13.611,42.286,42.286,0,0,0,1.555-20.093,45.2,45.2,0,0,0-2.912-10.642c-1.223-2.98-2.819-6.384-6.065-7.561-2.424-.879-3.469,2.985-1.064,3.857Z"/><path class="d" d="M82.268,103.688,80,103.68a1.515,1.515,0,0,0-.771.173A2.054,2.054,0,0,0,78,105.68a2.021,2.021,0,0,0,.586,1.415A2.077,2.077,0,0,0,80,107.68l2.265.008a1.512,1.512,0,0,0,.771-.173,2.054,2.054,0,0,0,1.229-1.827,2.024,2.024,0,0,0-.585-1.415,2.08,2.08,0,0,0-1.415-.585Z"/><path class="d" d="M69.791,104.021a4.343,4.343,0,0,1-.587.124l.532-.071a4.284,4.284,0,0,1-1.091,0l.532.071c-.07-.009-.139-.02-.209-.033a1.523,1.523,0,0,0-.8-.036,1.8,1.8,0,0,0-1.305.753,1.505,1.505,0,0,0-.358.68l-.072.532a2.007,2.007,0,0,0,.273,1.009l.313.4a2,2,0,0,0,.883.514,6.083,6.083,0,0,0,2.949-.093,2.238,2.238,0,0,0,1.2-.919,1.477,1.477,0,0,0,.238-.743,1.526,1.526,0,0,0-.036-.8l-.2-.478a2.011,2.011,0,0,0-.717-.717l-.478-.2a2.018,2.018,0,0,0-1.063,0Z"/><path class="d" d="M74.941,114.643a1.945,1.945,0,0,0-.375-.095,6.9,6.9,0,0,0-.941-.107,3.064,3.064,0,0,0-.406.017c-.23.025-.461.053-.689.094a1.429,1.429,0,0,0-.169.04,2.238,2.238,0,0,0-1.2.919,1.487,1.487,0,0,0-.238.743,1.526,1.526,0,0,0,.036.8l.2.478a2.019,2.019,0,0,0,.717.717l.478.2a2.018,2.018,0,0,0,1.063,0,1.72,1.72,0,0,1,.266-.055l-.532.071a3.17,3.17,0,0,1,.82,0l-.531-.072a2.044,2.044,0,0,1,.43.1,2.058,2.058,0,0,0,2.461-1.4l.071-.532a1.991,1.991,0,0,0-.273-1.01l-.313-.4a1.992,1.992,0,0,0-.882-.515Z"/><path class="d" d="M96.845,108.408a4.144,4.144,0,0,1,.39-.255c.3-.178-.161.009.046-.01s.318-.07.038-.043c.17-.016.332-.006.5-.011l-.2-.033a3.177,3.177,0,0,1,.321.074c.344.061-.11-.1.044.009.3.21.166-.034.045-.016.071-.01.418.5.075.025.205.284.012-.132.047.054.02.109.125.287.1.4q-.041-.356-.014-.12l.027.263c.014.146.025.292.035.438.021.32.033.64.028.96,0,.145-.008.289-.017.433,0,.061-.067.6-.026.336.044-.279-.04.192-.052.245q-.056.255-.13.505c-.043.14-.095.277-.144.415s-.042.111.026-.067l-.08.163c-.15.262-.291.525-.461.775-.12.176-.193.23-.017.035-.108.119-.209.241-.322.355-.1.1-.208.183-.3.28-.175.173.224-.12-.035.023-.12.066-.606.442-.741.4l.194-.081c-.073.03-.146.058-.219.085-.122.045-.244.087-.367.126a6.113,6.113,0,0,1-.822.2,2.008,2.008,0,0,0-1.4,2.46,2.059,2.059,0,0,0,2.461,1.4,7.972,7.972,0,0,0,6.437-7.647c.112-1.8-.024-4.092-1.51-5.328a4.945,4.945,0,0,0-5.973-.294,2.053,2.053,0,0,0-.718,2.737,2.02,2.02,0,0,0,2.736.717Z"/><path class="d" d="M76.851,86.252c-.032.086-.065.171-.1.255l.2-.477a6.02,6.02,0,0,1-.776,1.32l.312-.405a6.213,6.213,0,0,1-1.088,1.08l.405-.313a6.055,6.055,0,0,1-1.275.746l.478-.2c-.152.064-.306.121-.463.173a2.117,2.117,0,0,0-1.2.919,2.044,2.044,0,0,0-.2,1.541,2,2,0,0,0,2.461,1.4,7.934,7.934,0,0,0,5.1-4.972,2,2,0,0,0-2.938-2.259l-.405.313a2,2,0,0,0-.514.883Z"/><path class="d" d="M82.693,88.4c.026.148.049.3.068.444l-.071-.531a7.726,7.726,0,0,1,.014,1.922l.072-.532a5.383,5.383,0,0,1-.364,1.367l.2-.478a4.117,4.117,0,0,1-.486.831l.312-.405a3.511,3.511,0,0,1-.564.566l.4-.313a3.4,3.4,0,0,1-.7.41l.478-.2q-.13.054-.264.1a2.123,2.123,0,0,0-1.2.919,2,2,0,0,0,2.259,2.938A5.418,5.418,0,0,0,85,94.143a5.98,5.98,0,0,0,1.306-2.112,8.78,8.78,0,0,0,.24-4.7,2.016,2.016,0,0,0-.919-1.2,2.044,2.044,0,0,0-1.541-.2,2.022,2.022,0,0,0-1.2.919,2.273,2.273,0,0,0-.2,1.541Z"/><path class="d" d="M76.238,128.1c3.888.946,8.135.818,12.1.585a49.842,49.842,0,0,0,14.144-2.5c2.4-.878,1.362-4.745-1.063-3.857a45.945,45.945,0,0,1-13.081,2.362c-3.628.213-7.645.383-11.032-.442-2.5-.608-3.568,3.248-1.064,3.857Z"/><path class="b" d="M110.816,145.171c-1.276-5.1-3.455-14.047-5.315-14.959a11.132,11.132,0,0,0-2.526-.361,1.579,1.579,0,0,0-1.2.55c-2.1,2-1.54,4.242-.728,6.914a44.3,44.3,0,0,1-8.1-4.147c-2.526-1.627-6.187-4.537-7.853-2.968a3.33,3.33,0,0,0-3.183,4.168c-1.018,1.064-.977,2.727-.645,4.469,1.8,9.438,6.5,12.43,15.459,15.955a51.58,51.58,0,0,1,4.334,3.287"/><path class="d" d="M112.745,144.64c-.689-2.757-1.372-5.517-2.19-8.238-.667-2.221-1.34-4.742-2.72-6.644-1.494-2.062-5.244-2.649-7.221-.992-2.862,2.4-2.464,5.871-1.5,9.08l2.46-2.46a53.661,53.661,0,0,1-9.453-5.167c-2.467-1.637-5.72-3.659-8.442-1.433L85.1,128.2c-3.648.065-5.664,3.3-5.111,6.7l.514-1.946c-2.524,2.983-1.206,7.57.078,10.865a17.684,17.684,0,0,0,4.81,7.069,29.319,29.319,0,0,0,7.738,4.57,16.649,16.649,0,0,1,3.773,1.838c1.068.815,2.059,1.732,3.154,2.511a2.015,2.015,0,0,0,2.736-.718,2.043,2.043,0,0,0-.717-2.736c-.245-.174-.01,0,.032.033-.115-.09-.229-.182-.342-.274-.318-.256-.633-.516-.95-.774-.692-.563-1.385-1.127-2.105-1.654a25.02,25.02,0,0,0-4.616-2.145c-2.855-1.3-5.721-2.856-7.7-5.355a13.712,13.712,0,0,1-2.059-3.711,16.153,16.153,0,0,1-1.269-5.581c.015-.989.855-1.557.855-2.523,0-.625-.2-1.173.215-1.739.482-.657,1.331-.324,1.978-.7l.405-.313-.033.051c-.06.01-.059.08-.132.076a3.447,3.447,0,0,1,.9.257c2.069.834,3.871,2.414,5.765,3.571a51.568,51.568,0,0,0,7.5,3.674c1.439.587,2.864-1.119,2.46-2.46a8.95,8.95,0,0,1-.653-3.342,2.3,2.3,0,0,1,.342-1.01,1.992,1.992,0,0,1,.524-.615c-.259.159-.161.012.147.067a4.3,4.3,0,0,0,1.176.117c.293-.046.248.107-.122-.16a.754.754,0,0,1,.2.214c-.14-.34.222.391.306.545.152.28.3.572.422.864,1.687,3.869,2.548,8.161,3.568,12.24.623,2.5,4.482,1.439,3.857-1.063Z"/><path class="b" d="M62.687,169.706a10.826,10.826,0,0,0,6.513-.13,48.162,48.162,0,0,0,6.38-2.966,66.822,66.822,0,0,1,6.292-2.705c1.363-.512,2.89-.97,4.21-.392,1.985.883,2.344,3.74,1.287,5.627s-3.054,3.021-4.962,4.057c1.908.065,3.827.861,6.085.2a33.69,33.69,0,0,0,7.1-2.672,8.911,8.911,0,0,1,3.446-1.374,3.152,3.152,0,0,1,3.163,1.538c.851,1.777-.774,3.707-2.257,5.027-3.992,3.544-8.081,7.154-13.011,9.215-4.929,2.039-10.938,2.279-15.333-.741-1.276-.873-2.41-2.007-3.9-2.4-1.287-.36-4.658.244-5.977.484"/><path class="d" d="M62.156,171.635c6.543,1.863,11.966-2.37,17.692-4.794,1.331-.564,5.627-3.016,6.083-.43.448,2.541-2.74,4.08-4.534,5.059-1.832,1-.876,3.617,1.01,3.727,2.439.141,4.548.718,6.98.017a39.019,39.019,0,0,0,6.194-2.227c.8-.386,4.115-2.754,4.822-1.236.568,1.222-2.778,3.551-3.5,4.183-3.508,3.072-7.3,6.231-11.787,7.746-3.886,1.313-8.416,1.52-12.018-.7-2-1.237-3.586-2.92-6.07-3.089a24.319,24.319,0,0,0-5.842.654c-2.529.459-1.457,4.314,1.064,3.857,1.481-.268,3.629-.791,4.914-.483a8.507,8.507,0,0,1,2.8,1.744,14.835,14.835,0,0,0,3.308,1.85c4.679,1.9,10.116,1.294,14.673-.655,4.957-2.12,9.106-5.685,13.091-9.24,1.844-1.645,3.862-3.906,3.3-6.589-.549-2.639-3.316-3.992-5.831-3.607a11.76,11.76,0,0,0-3.924,1.576,21.24,21.24,0,0,1-3.768,1.6,15.257,15.257,0,0,1-4.062,1.065c-1.457.045-2.895-.374-4.345-.458l1.009,3.727c2.843-1.552,5.918-3.576,6.436-7.039.515-3.44-1.707-6.814-5.429-6.632a17.419,17.419,0,0,0-5.638,1.731c-1.831.762-3.633,1.587-5.4,2.493-3.231,1.658-6.459,3.357-10.169,2.3-2.48-.706-3.539,3.152-1.063,3.857Z"/><path class="b" d="M61.467,187.463c-9.868.017-18.724-1.554-29.339-3.586l3.5-23.024c9.661,2.255,20.365,4.4,28.988,6.432.175,2.387-1.085,15.037-2.384,20.174C61.979,187.461,61.723,187.463,61.467,187.463Z"/><path class="d" d="M40.886,94.554C35.524,96.89,30.3,99.535,25.1,102.215c-4.891,2.522-9.738,5.078-13.81,8.845a27.926,27.926,0,0,0-8.064,13.528c-1.562,5.847-2.078,12-2.58,18.012C-.078,151.293-.4,160.141.8,168.808c.653,4.71,3.145,9.2,7.648,11.148a66.151,66.151,0,0,0,14.144,4.215c13.074,2.456,26.277,5.389,39.643,5.288a2.037,2.037,0,0,0,1.929-1.469,88.69,88.69,0,0,0,1.8-11.489,54.136,54.136,0,0,0,.657-9.216,2.053,2.053,0,0,0-1.468-1.929c-13.66-3.214-27.539-5.617-41.029-9.521-2.477-.717-3.535,3.141-1.063,3.857,13.49,3.9,27.369,6.307,41.028,9.521l-1.468-1.928a52.949,52.949,0,0,1-.621,8.9,82.011,82.011,0,0,1-1.691,10.746l1.928-1.468c-11.636.088-22.91-2.354-34.306-4.376a93.657,93.657,0,0,1-13.175-2.971,22.424,22.424,0,0,1-6.24-2.659,9.51,9.51,0,0,1-3.222-4.778c-1.046-3.256-1.1-7.076-1.212-10.633-.146-4.5-.012-9,.274-13.486A144.453,144.453,0,0,1,6.246,129.43c.932-5.025,2.507-9.775,5.983-13.631,3.853-4.273,8.835-7,13.88-9.608,5.528-2.863,11.086-5.7,16.8-8.183a2.014,2.014,0,0,0,.717-2.737,2.051,2.051,0,0,0-2.736-.717Z"/><path class="b" d="M101.2,152.665a31.831,31.831,0,0,0-3.8,4.105c3.111,3.333,11.9,13.115,17.037,16.441.091.059.183.119.277.178.931-8.91,2.686-25.73,2.686-25.73-1.778-1.778-3.691-3.807-5.111-5.112C110.129,144.861,105,149.048,101.2,152.665Z"/><path class="d" d="M118.812,146.244c-1.7-1.706-3.346-3.471-5.111-5.111a2.03,2.03,0,0,0-2.828,0c-4.805,5.094-11.062,8.911-15.2,14.627a2.02,2.02,0,0,0,.313,2.424c4.776,5.124,9.455,10.492,14.931,14.894a26.479,26.479,0,0,0,10.523,5.253c4.1.967,9.049,1.152,11.751-2.649,2.225-3.131,2.189-7.392,2.262-11.073a83.86,83.86,0,0,0-.628-11.885,86.42,86.42,0,0,0-6.472-24.155c-3.563-8.143-8.7-15.634-15.8-21.082a2.012,2.012,0,0,0-2.737.718,2.05,2.05,0,0,0,.718,2.736c11.576,8.892,17.323,24.1,19.726,38.037a83.153,83.153,0,0,1,1.151,11.156c.121,3.384.313,7.109-.4,10.44a5.931,5.931,0,0,1-1.924,3.7c-1.315.939-3.431.734-4.934.526a21.649,21.649,0,0,1-10.052-4.258c-5.679-4.358-10.433-9.966-15.3-15.183l.313,2.424c1.749-2.416,4.719-4.885,7.129-7.024,2.5-2.224,5.146-4.354,7.447-6.793h-2.828c1.765,1.64,3.411,3.4,5.111,5.111,1.819,1.826,4.648-1,2.828-2.829Z"/><path class="d" d="M61.4,72.52c1.7,1.663,4.345,2.183,6.633,2.181s4.935-.517,6.635-2.181a2,2,0,0,0-2.828-2.828c-.077.075-.4.334-.078.087s-.09.053-.189.113q-.2.124-.416.231a2.647,2.647,0,0,0-.29.136c.129-.086.411-.156.1-.049a9.646,9.646,0,0,1-1.387.38c-.074.013-.6.121-.1.026a4.089,4.089,0,0,1-.427.043c-.339.029-.679.042-1.019.042q-.467,0-.932-.034a3.267,3.267,0,0,1-.514-.051c.253.066.2.028-.026-.013a8.416,8.416,0,0,1-1.406-.372c-.181-.066-.386-.239.044.028a2.679,2.679,0,0,0-.243-.113c-.158-.078-.313-.162-.462-.254-.114-.07-.219-.162-.335-.226.553.308.245.2.07.026A2,2,0,1,0,61.4,72.52Z"/><path class="d" d="M67.065,59.953a26.6,26.6,0,0,1,.625,2.86l-.071-.532a1.739,1.739,0,0,1,.01.4l.072-.532a.985.985,0,0,1-.044.178l.2-.478a.748.748,0,0,1-.063.114l.313-.405a.578.578,0,0,1-.093.092l.4-.312a1.876,1.876,0,0,1-.226.12l.478-.2a1.654,1.654,0,0,1-.382.111l.531-.071a1.531,1.531,0,0,1-.358,0l.532.072c-.135-.019-.268-.052-.4-.07a1.506,1.506,0,0,0-.8-.036,1.486,1.486,0,0,0-.743.237,2,2,0,0,0-.718,2.737,1.916,1.916,0,0,0,1.2.919c.355.048.7.137,1.061.152a3.467,3.467,0,0,0,1.624-.395A2.456,2.456,0,0,0,71.541,63.3a3.815,3.815,0,0,0-.013-1.671c-.156-.922-.369-1.835-.606-2.739a2,2,0,0,0-2.46-1.4,2.027,2.027,0,0,0-1.2.92,2.1,2.1,0,0,0-.2,1.541Z"/><path class="d" d="M52.628,51.789c-.467,1.518-.162,5.008,2.712,5.305,3.8-.023,4-4.243,2.723-6.227C57.015,49.243,53.936,48.567,52.628,51.789Z"/><path class="d" d="M82.927,51.789c.467,1.518.163,5.008-2.712,5.305-3.8-.023-4-4.243-2.722-6.227C78.54,49.243,81.619,48.567,82.927,51.789Z"/></svg>