<?xml version="1.0" encoding="iso-8859-1"?>
<!-- Uploaded to: SVG Repo, www.svgrepo.com, Generator: SVG Repo Mixer Tools -->
<svg height="800px" width="800px" version="1.1" id="Layer_1" xmlns="http://www.w3.org/2000/svg" xmlns:xlink="http://www.w3.org/1999/xlink" 
	 viewBox="0 0 512 512" xml:space="preserve">
<path style="fill:#AB5034;" d="M256,288.337c-51.897,0-102.188-10.263-137.976-28.157c-28.344-14.172-45.266-31.853-45.266-47.296
	s16.922-33.124,45.266-47.296c35.788-17.894,86.079-28.157,137.976-28.157s102.188,10.263,137.976,28.157
	c28.344,14.172,45.266,31.853,45.266,47.296s-16.922,33.124-45.266,47.296C358.188,278.074,307.897,288.337,256,288.337z"/>
<path style="fill:#BD7155;" d="M256,137.432c-51.897,0-102.188,10.263-137.976,28.157c-28.344,14.172-45.266,31.853-45.266,47.296
	s16.922,33.124,45.266,47.296c2.397,1.199,4.863,2.359,7.387,3.489L386.589,162.1C351.44,146.368,304.421,137.432,256,137.432z"/>
<path style="fill:#E7E4CD;" d="M256,256c-38.16,0-75.138-5.865-101.453-16.09c-20.841-8.098-33.284-18.201-33.284-27.026
	s12.443-18.928,33.284-27.026c26.315-10.225,63.293-16.09,101.453-16.09s75.138,5.865,101.453,16.09
	c20.841,8.098,33.284,18.201,33.284,27.026s-12.443,18.928-33.284,27.026C331.138,250.135,294.16,256,256,256z"/>
<path style="fill:#FEFBE1;" d="M256,169.768c-38.16,0-75.138,5.865-101.453,16.09c-20.841,8.098-33.284,18.201-33.284,27.026
	s12.443,18.928,33.284,27.026c5.359,2.083,11.166,3.981,17.329,5.688l168.246-65.429C316.021,173.49,286.389,169.768,256,169.768z"
	/>
<path style="fill:#78ABB1;" d="M294.489,235.519c-0.714,0-1.434-0.085-2.144-0.261L256,226.248l-36.346,9.01
	c-3.275,0.815-6.783-0.314-8.654-2.783c-1.869-2.467-1.665-5.701,0.502-7.978l7.15-7.509l-27.073-6.712
	c-3.732-0.925-6.104-4.086-5.565-7.413c0.54-3.326,3.829-5.8,7.709-5.8h43.903l12.367-12.986c1.479-1.553,3.682-2.452,6.008-2.452
	s4.528,0.899,6.008,2.452l12.367,12.986h43.903c3.88,0,7.17,2.474,7.709,5.8c0.539,3.326-1.835,6.488-5.565,7.413l-27.073,6.712
	l7.15,7.509c2.169,2.277,2.372,5.51,0.502,7.978C299.536,234.408,297.066,235.519,294.489,235.519z"/>
<path style="fill:#92BCBC;" d="M274.375,197.064l-12.367-12.986c-1.479-1.553-3.682-2.452-6.008-2.452s-4.528,0.899-6.008,2.452
	l-12.367,12.986h-43.903c-3.88,0-7.17,2.474-7.709,5.8c-0.539,3.326,1.835,6.488,5.565,7.413l27.073,6.712l-7.15,7.509
	c-1.689,1.773-2.169,4.124-1.423,6.244l86.599-33.678H274.375z"/>
<path d="M503.916,280.253c-8.293,0-15.431-6.19-16.604-14.4l-7.665-53.658c-0.343-31.749-24.309-61.118-67.595-82.761
	C370.234,108.526,314.814,97.011,256,97.011s-114.234,11.515-156.052,32.424c-43.286,21.643-67.252,51.011-67.595,82.761
	l-7.665,53.658c-1.173,8.209-8.311,14.4-16.604,14.4c-4.465,0-8.084,3.618-8.084,8.084s3.62,8.084,8.084,8.084
	c16.287,0,30.306-12.159,32.61-28.282l2.671-18.695c7.276,11.629,18.064,22.54,32.088,32.395v36.291
	c0,11.785-6.548,22.38-17.089,27.65c-3.994,1.997-5.613,6.852-3.615,10.847c1.416,2.833,4.271,4.47,7.237,4.47
	c1.215,0,2.449-0.276,3.609-0.856c16.054-8.027,26.027-24.163,26.027-42.111v-26.191c2.692,1.497,5.464,2.964,8.327,4.395
	c15.324,7.663,32.482,14.058,50.957,19.093v35.04c0,14.519-3.432,29.058-9.925,42.044c-1.997,3.994-0.378,8.849,3.615,10.847
	c1.161,0.581,2.394,0.856,3.609,0.856c2.965,0,5.821-1.638,7.237-4.47c7.61-15.22,11.633-32.26,11.633-49.276v-31.053
	c25.281,5.591,52.612,8.755,80.842,9.263v78.227c0,4.466,3.62,8.084,8.084,8.084c4.465,0,8.084-3.618,8.084-8.084v-78.228
	c28.23-0.509,55.561-3.672,80.842-9.263v31.053c0,17.016,4.023,34.056,11.633,49.276c1.416,2.833,4.271,4.47,7.237,4.47
	c1.215,0,2.448-0.276,3.609-0.856c3.994-1.997,5.613-6.852,3.615-10.847c-6.493-12.985-9.925-27.525-9.925-42.043v-35.04
	c18.476-5.035,35.633-11.43,50.957-19.093c2.862-1.431,5.634-2.897,8.327-4.395v26.191c0,17.948,9.973,34.084,26.027,42.111
	c1.161,0.58,2.394,0.856,3.609,0.856c2.965,0,5.821-1.638,7.237-4.47c1.997-3.994,0.378-8.85-3.615-10.847
	c-10.541-5.271-17.089-15.867-17.089-27.65v-36.291c14.023-9.855,24.812-20.767,32.088-32.395l2.671,18.695
	c2.303,16.123,16.323,28.282,32.61,28.282c4.465,0,8.084-3.618,8.084-8.084S508.38,280.253,503.916,280.253z M354.915,125.402
	c18.168,4.829,34.978,11.028,49.908,18.493c0.815,0.407,1.611,0.821,2.41,1.234l-20.746,8.104
	c-13.591-5.797-28.766-10.637-44.991-14.41L354.915,125.402z M264.084,113.262c25.204,0.469,49.606,3.123,72.315,7.79
	l-13.924,13.925c-18.677-3.242-38.376-5.137-58.391-5.54L264.084,113.262L264.084,113.262z M247.916,113.262v16.174
	c-20.014,0.404-39.714,2.299-58.391,5.54l-13.924-13.925C198.31,116.385,222.711,113.731,247.916,113.262z M107.178,143.896
	c14.929-7.464,31.74-13.663,49.908-18.493l13.42,13.421c-16.226,3.773-31.4,8.613-44.991,14.41l-20.746-8.104
	C105.567,144.717,106.363,144.303,107.178,143.896z M87.032,155.561l18.829,7.354c-22.179,12.623-36.225,27.342-40.09,41.885H49.217
	C52.274,187.116,65.313,170.19,87.032,155.561z M87.032,270.208c-21.72-14.629-34.759-31.555-37.816-49.239h16.555
	c3.864,14.543,17.91,29.262,40.09,41.884L87.032,270.208z M157.085,300.366c-18.168-4.829-34.978-11.028-49.908-18.493
	c-0.815-0.407-1.611-0.821-2.41-1.234l20.746-8.104c13.591,5.797,28.766,10.637,44.991,14.41L157.085,300.366z M247.916,312.506
	c-25.204-0.469-49.606-3.123-72.315-7.79l13.924-13.925c18.677,3.242,38.376,5.137,58.391,5.54L247.916,312.506L247.916,312.506z
	 M256,280.253c-50.684,0-99.657-9.951-134.361-27.303c-24.784-12.391-40.797-28.118-40.797-40.065s16.013-27.674,40.797-40.065
	c34.704-17.352,83.677-27.303,134.361-27.303s99.657,9.951,134.361,27.303c24.784,12.391,40.797,28.118,40.797,40.065
	s-16.013,27.674-40.797,40.065C355.657,270.302,306.684,280.253,256,280.253z M264.084,312.506v-16.174
	c20.014-0.404,39.714-2.299,58.391-5.54l13.924,13.925C313.69,309.384,289.289,312.038,264.084,312.506z M404.822,281.873
	c-14.929,7.464-31.74,13.663-49.908,18.493l-13.42-13.421c16.226-3.773,31.4-8.613,44.991-14.41l20.746,8.104
	C406.433,281.051,405.637,281.465,404.822,281.873z M424.967,270.208l-18.829-7.354c22.18-12.622,36.226-27.341,40.09-41.884h16.555
	C459.726,238.652,446.687,255.579,424.967,270.208z M446.229,204.8c-3.864-14.543-17.91-29.262-40.09-41.884l18.829-7.354
	c21.72,14.628,34.759,31.555,37.816,49.239h-16.554V204.8z"/>
</svg>