<?xml version="1.0" encoding="utf-8"?>
<!-- Uploaded to: SVG Repo, www.svgrepo.com, Generator: SVG Repo Mixer Tools -->
<svg width="800px" height="800px" viewBox="-164.93 0 443.233 443.233" xmlns="http://www.w3.org/2000/svg"><defs><style>.a{fill:#ffffff;}.b{fill:#b5886a;}.c{fill:#211715;}.d{fill:#645d5c;}.e{fill:#f4b3b3;}.f{fill:#ffda71;}</style></defs><path class="a" d="M31.593,409.31c-.122-.061-.241-.128-.358-.2a3.836,3.836,0,0,1-1.536-1.8,28.6,28.6,0,0,0,1.826-6.768,136.581,136.581,0,0,0,18,.1c.01,1.482.03,2.963.04,4.445a22.687,22.687,0,0,1-14.27,4.933A8.551,8.551,0,0,1,31.593,409.31Z"/><path class="a" d="M78.6,409.3a8.508,8.508,0,0,1-3.72.726,22.7,22.7,0,0,1-14.273-4.933c.015-1.45.025-2.909.035-4.359a137.08,137.08,0,0,0,17.991-.313,27.924,27.924,0,0,0,1.851,6.891,3.887,3.887,0,0,1-1.543,1.8C78.834,409.179,78.72,409.243,78.6,409.3Z"/><path class="b" d="M39.5,99.039l-12.009.38c-8.79,2.005-14.75-4.483-14.7-10.4a65.222,65.222,0,0,1,1.741-13.1c1.354-5.2,2.321-14.351,2.319-27.038-.578-17.409,4-30.034,11.221-36.945A39.184,39.184,0,0,1,53.247,2.091c6.8,0,10.369.727,14.254,2.241l.215.106L73.58,7.313c2.593,1.408,3.285,2.48,5.667,4.778,5.509,5.315,9.338,14.878,9.947,23.441a98.837,98.837,0,0,1,.191,13.347c.2,15.807,2.906,24.654,4.3,29.009a30.855,30.855,0,0,1,1.7,9.9c.05,5.916-6.329,12.963-14.191,9.931Z"/><path class="a" d="M78.384,98.35c-.417-.183-10.78-5.971-11.9-8.751-.829-2.05-.555-4.93-.624-7.064,7.049-3.014,12.722-12.5,13.711-15.188.149-.452.452-1.3.724-2.318l.563-.086a7.093,7.093,0,0,0,3.3-1.485,10.71,10.71,0,0,0,2.763-3.627,16.816,16.816,0,0,0,1.714-8.912,5.615,5.615,0,0,0-.587-2.257,3.968,3.968,0,0,0-2.853-1.9A4.051,4.051,0,0,0,81.342,48.3c-4.7-1.472-9.926-9.538-11.739-12.938-1.271-2.383-2.654-7.552-3.746-11.2A38.131,38.131,0,0,1,45.793,38.106c-1.956.582-.112-5.622.235-8.553C39.5,35.965,31.353,43.633,25.506,47.835a4.165,4.165,0,0,0-3.449-1.07,3.965,3.965,0,0,0-2.853,1.9,5.6,5.6,0,0,0-.587,2.257,16.806,16.806,0,0,0,1.714,8.912,10.675,10.675,0,0,0,2.763,3.627,7.093,7.093,0,0,0,3.295,1.485l1.074.165a28.6,28.6,0,0,0,5.449,10.637,24.126,24.126,0,0,0,8.842,6.911c-.055,2.12.2,4.931-.619,6.943-1.125,2.78-12.557,8.568-12.974,8.751,0,0,1.11,21.644,24.444,21.644S78.384,98.35,78.384,98.35Z"/><path class="c" d="M83.236,49.163a2.129,2.129,0,0,1,3.006.4A4.585,4.585,0,0,1,86.68,51.9a14.008,14.008,0,0,1-.2,2.885c-.626,3.428-2.352,7.548-6.164,8.231a2.018,2.018,0,0,0-1.4,2.461,2.044,2.044,0,0,0,2.46,1.4c5.954-1.067,8.8-7.781,9.244-13.177.233-2.8-.017-5.961-2.434-7.769a6.236,6.236,0,0,0-7.786.409,2.015,2.015,0,0,0,0,2.829,2.043,2.043,0,0,0,2.828,0Z"/><path class="c" d="M78.81,61.814a15.72,15.72,0,0,1-.919,4.243c-.063.191-.488,1.3-.215.686q-.2.449-.418.888a35.964,35.964,0,0,1-3.107,4.993c-2.686,3.684-6.338,7.591-10.934,8.669-2.5.588-1.444,4.445,1.064,3.857,5.573-1.308,9.894-5.861,13.172-10.3,2.828-3.829,5.159-8.17,5.357-13.036.1-2.574-3.9-2.569-4,0Z"/><path class="c" d="M26.834,46.334a6.24,6.24,0,0,0-7.786-.409c-2.42,1.8-2.667,4.975-2.435,7.769.449,5.4,3.291,12.11,9.244,13.177a2.055,2.055,0,0,0,2.46-1.4,2.017,2.017,0,0,0-1.4-2.461c-3.813-.683-5.538-4.8-6.164-8.231a13.862,13.862,0,0,1-.2-2.722,5.385,5.385,0,0,1,.372-2.39,2.113,2.113,0,0,1,3.075-.508,2.055,2.055,0,0,0,2.828,0,2.016,2.016,0,0,0,0-2.829Z"/><path class="c" d="M24.63,61.606a32.8,32.8,0,0,0,7,15.7C35.569,81.978,40.79,85.336,46.934,86a2.012,2.012,0,0,0,2-2,2.046,2.046,0,0,0-2-2c-5.19-.56-9.519-3.905-12.737-7.826a29.144,29.144,0,0,1-5.71-13.63,2.017,2.017,0,0,0-2.461-1.4,2.045,2.045,0,0,0-1.4,2.46Z"/><path class="c" d="M67.889,2.348C58.041-1.406,46.479-.467,36.974,3.8a35.735,35.735,0,0,0-10.883,7.276,33.914,33.914,0,0,0-6.784,10.35,53.9,53.9,0,0,0-3.818,14.188c-.816,6.007-.565,11.988-.688,18.027a137.607,137.607,0,0,1-1.065,15.742c-.556,4.089-1.721,8.046-2.288,12.134-.7,5.061-1.476,10.388,1.79,14.756,3.5,4.675,9.192,6.273,14.783,5.073,2.515-.54,1.451-4.4-1.064-3.857-3.947.847-8.231-.264-10.606-3.709-2.321-3.366-1.546-7.586-1.018-11.4s1.618-7.529,2.177-11.349a130.877,130.877,0,0,0,1.2-14.273c.2-5.668-.124-11.354.324-17.01a55.575,55.575,0,0,1,2.855-14.034,33.464,33.464,0,0,1,5.314-9.89A28.584,28.584,0,0,1,35.7,8.909c9.3-5.2,21.073-6.535,31.124-2.7a2.015,2.015,0,0,0,2.46-1.4,2.043,2.043,0,0,0-1.4-2.46Z"/><path class="c" d="M72.57,9.04a16.024,16.024,0,0,1,3.675,2.885,43.829,43.829,0,0,1,3.779,4.027,34.27,34.27,0,0,1,5.1,9.807c2.281,6.675,2.63,13.941,2.386,20.948a98.873,98.873,0,0,0,1.81,22.364q.676,3.442,1.657,6.816a59.947,59.947,0,0,1,2.144,8.058c.52,3.534.386,6.933-2.146,9.68a8.207,8.207,0,0,1-9.248,2.167c-2.42-.888-3.464,2.977-1.063,3.857,7.079,2.6,14.873-2.048,16.444-9.361,1.344-6.261-1.6-12.479-3.081-18.449a98.67,98.67,0,0,1-2.623-21.752c-.043-2.03.152-4.062.142-6.1-.01-1.961-.083-3.921-.19-5.878a51.407,51.407,0,0,0-1.6-10.909,40.14,40.14,0,0,0-5.886-12.737,41.57,41.57,0,0,0-4.412-4.981,21.845,21.845,0,0,0-4.87-3.9c-2.252-1.252-4.271,2.2-2.019,3.454Z"/><path class="c" d="M64.024,25.025c.856,2.884,1.634,5.8,2.683,8.626a30.06,30.06,0,0,0,3.074,5.918c2.673,4.12,6.186,9.073,11.069,10.672,2.452.8,3.5-3.058,1.064-3.857-1.892-.62-3.476-2.252-4.8-3.708a40.573,40.573,0,0,1-4.194-5.614,24.815,24.815,0,0,1-2.53-4.946c-.957-2.679-1.7-5.429-2.511-8.154-.731-2.462-4.592-1.414-3.857,1.063Z"/><path class="c" d="M64.426,22.773A38.522,38.522,0,0,1,50.475,34.249a33.42,33.42,0,0,1-4.069,1.583c-.068.021-1.135.3-1.145.346.144-.67,1.652.871,1.657.873-.091-.038-.01-.014-.01-.182,0-.227.008-.451.023-.678.152-2.229.814-4.42,1.1-6.638.23-1.807-2.289-2.519-3.414-1.414-4.99,4.9-10.054,9.734-15.4,14.245-1.97,1.663.872,4.48,2.828,2.828,5.344-4.51,10.409-9.348,15.4-14.245l-3.414-1.414c-.12.941-.461,2.462-.671,3.616a16.941,16.941,0,0,0-.441,3.9,2.987,2.987,0,0,0,1.967,2.987c1.518.417,3.625-.685,4.995-1.227A41.225,41.225,0,0,0,67.254,25.6a2.067,2.067,0,0,0,0-2.829,2.012,2.012,0,0,0-2.828,0Z"/><path class="c" d="M63.863,82.89c.03,2.391-.2,4.966.688,7.241a8.219,8.219,0,0,0,2.5,3.156,56.351,56.351,0,0,0,7.992,5.471,26.409,26.409,0,0,0,2.328,1.319,2.059,2.059,0,0,0,2.737-.718,2.016,2.016,0,0,0-.718-2.736,44.217,44.217,0,0,1-5.184-3.076q-.98-.629-1.938-1.289c-.3-.21-.607-.424-.906-.641-.158-.115-.315-.23-.471-.347l-.2-.148c-.245-.184.362.29-.042-.032-.516-.412-1.026-.831-1.5-1.289-.194-.186-.383-.378-.56-.58-.074-.083-.142-.172-.215-.255.239.272.155.237.024,0-.056-.1-.113-.2-.165-.3.211.417-.036-.192-.079-.355a6.792,6.792,0,0,1-.24-1.5c-.092-1.3-.038-2.609-.055-3.914-.032-2.572-4.032-2.579-4,0Z"/><path class="c" d="M39.751,82.89c-.015,1.18.026,2.36-.033,3.538a9.454,9.454,0,0,1-.155,1.421c-.055.268-.143.527-.2.793-.1.443.143-.126-.051.153-.054.079-.111.168-.158.252-.186.337.28-.29.048-.064-.2.2-.381.413-.586.606-.222.209-.452.407-.687.6-.127.105-.257.207-.386.309.35-.276-.059.04-.191.137a66.314,66.314,0,0,1-7.956,4.83c-.739.395-1.477.812-2.241,1.158a2.014,2.014,0,0,0-.717,2.736,2.047,2.047,0,0,0,2.736.718,63.083,63.083,0,0,0,6-3.271A49.405,49.405,0,0,0,39.491,94a12.006,12.006,0,0,0,3.188-3.042,8.7,8.7,0,0,0,.986-3.78c.134-1.424.068-2.857.086-4.286.031-2.574-3.969-2.576-4,0Z"/><path class="c" d="M29.6,400.009a29.531,29.531,0,0,1-.738,3.566q-.237.864-.529,1.712a6.972,6.972,0,0,0-.634,2.043,2,2,0,0,0,4,0v-.01l-.072.532a29.067,29.067,0,0,0,1.83-6.78,2.2,2.2,0,0,0-.2-1.541,2,2,0,0,0-2.737-.718,1.925,1.925,0,0,0-.919,1.2Z"/><path class="c" d="M51.566,405.09c-.011-1.48-.03-2.96-.04-4.44a2.071,2.071,0,0,0-.586-1.414,2,2,0,0,0-2.829,0,2.07,2.07,0,0,0-.585,1.414c.01,1.48.029,2.96.04,4.44a2.065,2.065,0,0,0,.585,1.414,2,2,0,0,0,2.829,0,2.067,2.067,0,0,0,.586-1.414Z"/><path class="c" d="M76.707,400.942a28.661,28.661,0,0,0,1.85,6.91l-.071-.532v.01a2,2,0,0,0,4,0,7.233,7.233,0,0,0-.658-2.1q-.291-.849-.527-1.714a28.809,28.809,0,0,1-.737-3.634,1.994,1.994,0,0,0-.919-1.2,2.039,2.039,0,0,0-1.541-.2,2.017,2.017,0,0,0-1.195.919,2.358,2.358,0,0,0-.2,1.541Z"/><path class="c" d="M58.646,400.73l-.03,4.36A2.055,2.055,0,0,0,59.2,406.5a2,2,0,0,0,2.829,0,2.087,2.087,0,0,0,.586-1.414l.03-4.36a2.062,2.062,0,0,0-.586-1.414,2,2,0,0,0-2.829,0,2.088,2.088,0,0,0-.585,1.414Z"/><path class="d" d="M10.36,436.992q-.165-.216-.312-.446a8.362,8.362,0,0,1-.553-7.006,22.939,22.939,0,0,1,3.6-6.273q5.2-7.108,11-13.756c1.507-1.728,3.209-3.528,5.462-3.953a3.386,3.386,0,0,0,1.683,3.552,7.935,7.935,0,0,0,4.061.917,22.541,22.541,0,0,0,15.778-6.279c-.026,4.746.021,6.326,0,11.074a9.97,9.97,0,0,1-.417,3.424c-.975,2.639-3.869,3.91-6.191,5.5-6.04,4.134-9.222,11.675-15.552,15.351a16.341,16.341,0,0,1-15.108.541A9.531,9.531,0,0,1,10.36,436.992Z"/><path class="d" d="M99.82,436.992q.165-.216.312-.446a8.355,8.355,0,0,0,.553-7.006,22.939,22.939,0,0,0-3.595-6.273q-5.2-7.108-11-13.756c-1.507-1.728-3.209-3.528-5.461-3.953a3.387,3.387,0,0,1-1.684,3.552,7.935,7.935,0,0,1-4.061.917,22.541,22.541,0,0,1-15.778-6.279c.026,4.746-.021,6.326,0,11.074a9.97,9.97,0,0,0,.417,3.424c.975,2.639,3.869,3.91,6.191,5.5,6.041,4.134,9.222,11.675,15.552,15.351a16.341,16.341,0,0,0,15.108.541A9.531,9.531,0,0,0,99.82,436.992Z"/><path class="c" d="M12.087,435.982c-1.631-2.229-1.232-5.047-.048-7.4a52.076,52.076,0,0,1,5.49-7.93q3.032-3.954,6.267-7.746c1.712-2.014,3.554-4.809,6.287-5.424l-2.46-2.46a5.56,5.56,0,0,0,3.35,6.187c2.6,1.169,5.747.918,8.492.486a24.224,24.224,0,0,0,13.023-6.537l-3.414-1.414c-.021,4.045.156,8.121-.02,12.162-.087,2.007-1.119,3.183-2.726,4.265a56.886,56.886,0,0,0-4.73,3.256c-5.789,4.806-9.177,13.167-16.924,15.284-4.26,1.164-9.96.484-12.9-3.138a2.013,2.013,0,0,0-2.828,0,2.047,2.047,0,0,0,0,2.829c2.981,3.672,8.532,5.113,13.085,4.78a19.408,19.408,0,0,0,12.29-5.788c3.069-3.008,5.433-6.646,8.488-9.667a30.38,30.38,0,0,1,5.087-3.805,11.187,11.187,0,0,0,4.357-4.348c1.2-2.574.831-5.685.825-8.451-.005-2.459-.017-4.919,0-7.379a2.022,2.022,0,0,0-3.414-1.414,20.24,20.24,0,0,1-8.822,4.983,19.44,19.44,0,0,1-5.753.7c-.946-.027-3.925-.28-3.605-1.932a2.027,2.027,0,0,0-2.46-2.46c-3.455.777-5.719,3.713-7.9,6.271q-3.8,4.455-7.336,9.115C9.928,424.074,3.913,431.551,8.633,438a2.059,2.059,0,0,0,2.736.718A2.016,2.016,0,0,0,12.087,435.982Z"/><path class="c" d="M101.547,438c4.721-6.451-1.3-13.928-5.153-18.986q-3.548-4.651-7.336-9.115c-2.179-2.558-4.443-5.494-7.9-6.271a2.027,2.027,0,0,0-2.46,2.46c.3,1.573-2.456,1.886-3.394,1.927a19.343,19.343,0,0,1-5.964-.7,20.24,20.24,0,0,1-8.822-4.983,2.022,2.022,0,0,0-3.414,1.414c.012,2.231,0,4.462,0,6.693a44.027,44.027,0,0,0,.184,7.081c.772,4.787,5.507,6.194,8.744,8.972,3.269,2.806,5.668,6.433,8.563,9.592,3.076,3.357,6.852,6.048,11.422,6.835,5.17.889,11.734-.225,15.217-4.515a2.059,2.059,0,0,0,0-2.829,2.015,2.015,0,0,0-2.828,0c-2.551,3.142-7.352,4.091-11.193,3.509-4-.607-7.118-2.91-9.79-5.828-2.609-2.85-4.81-6.066-7.617-8.736a29.408,29.408,0,0,0-4.739-3.567c-1.32-.827-2.967-1.735-3.616-3.241a9.958,9.958,0,0,1-.348-3.831q0-1.722,0-3.442c.007-2.231.014-4.462,0-6.693l-3.414,1.414A24.224,24.224,0,0,0,70.716,411.7c2.665.419,5.7.667,8.253-.385a5.6,5.6,0,0,0,3.588-6.288l-2.46,2.46c2.67.6,4.457,3.275,6.133,5.243q3.307,3.882,6.421,7.927a54.244,54.244,0,0,1,5.392,7.741c1.242,2.4,1.735,5.283.05,7.585a2.015,2.015,0,0,0,.718,2.737A2.047,2.047,0,0,0,101.547,438Z"/><path class="a" d="M86.5,192.894c1.391,4.881,3.111,12.983,4.234,19.344,5.485,31.082.183,62.809-2.2,93.229-2.468,31.549-3.977,63.1-6.445,94.647a143.1,143.1,0,0,1-27.823.2,143.242,143.242,0,0,1-27.837-.2c-2.469-31.549-3.977-63.1-6.445-94.647-2.38-30.42-7.682-62.147-2.2-93.229,1.122-6.361,2.842-14.463,4.233-19.344"/><path class="c" d="M53.09,233.542c0,12.878-.071,25.757-.121,38.635-.047,11.944-.118,23.889-.12,35.833q0,15.15-.054,30.3-.039,20.179-.051,40.36,0,7.611.026,15.224c.011,2.5-.086,5.038.088,7.534a2.207,2.207,0,0,0,.612,1.66,2.064,2.064,0,0,0,2.829,0,2.015,2.015,0,0,0,0-2.829c-.159-.127.861,1.156.571,1.342a.551.551,0,0,0-.007-.086c.01-.116-.015-.243-.017-.359,0-.38-.019-.76-.026-1.14-.023-1.383-.032-2.766-.04-4.149-.029-4.7-.032-9.408-.035-14.113q-.011-19.687.042-39.375.032-16.239.061-32.477.012-16.223.1-32.444.079-20.478.14-40.958,0-1.479,0-2.957c0-2.574-4-2.578-4,0Z"/><path class="c" d="M16.675,207.327A184.477,184.477,0,0,0,13.4,244.108c.106,12.411,1.173,24.786,2.356,37.133,2.41,25.148,4.116,50.323,5.707,75.535.913,14.451,1.844,28.9,2.972,43.338a2.066,2.066,0,0,0,2,2,154.315,154.315,0,0,0,26.484.308c2.551-.191,2.572-4.193,0-4a154.315,154.315,0,0,1-26.484-.308l2,2c-1.989-25.469-3.362-50.98-5.116-76.465q-1.279-18.6-3.054-37.148c-1.2-12.333-2.4-24.678-2.763-37.07a186.254,186.254,0,0,1,3.033-41.04c.487-2.515-3.367-3.592-3.857-1.064Z"/><path class="c" d="M84.572,193.426a173.542,173.542,0,0,1,6.189,36.17c.844,13.532.146,27.1-.986,40.6s-2.624,26.982-3.639,40.5c-1.053,14.024-1.937,28.059-2.822,42.094-.994,15.78-1.992,31.56-3.222,47.323l2-2a154.326,154.326,0,0,1-26.485.308c-2.568-.192-2.555,3.809,0,4a154.326,154.326,0,0,0,26.485-.308,2.066,2.066,0,0,0,2-2c2.2-28.207,3.649-56.466,5.7-84.684.99-13.658,2.383-27.27,3.61-40.906,1.222-13.564,2.122-27.195,1.574-40.819a179.315,179.315,0,0,0-6.542-41.342c-.7-2.473-4.56-1.422-3.857,1.063Z"/><path class="e" d="M3.209,131.29c-.949,14.334-1.64,23.852-.728,30.519.568,4.153,2.737,7.111,5.474,8.3a68.525,68.525,0,0,0,13.533,4.437c-.759,5.857-2.962,19.466-4.723,25.863h72.6c-1.042-6.448-3.583-21.93-4.4-27.189,0,0,2.3-6.764,4.159-12.212a39.025,39.025,0,0,0,4.73,3.728c3.04,1.977,7.976,2.355,11.852,1.611,2.978-.572,5.258-4.246,5.481-6.884,1.411-16.647-4.936-38.419-17.352-49.926L78.854,98.8c-4.267,3.614-16.559,7.25-25.592,7.228-9.714-.024-20.11-3.614-25.635-7.228-3.439.4-10.739,3.928-16.418,9.828-6.276,6.521-7.333,16.409-8,22.667"/><path class="c" d="M16.765,202.405h72.6c2.574,0,2.578-4,0-4H16.765c-2.574,0-2.578,4,0,4Z"/><path class="c" d="M26.618,100.522c6.425,4.148,14.289,6.367,21.829,7.216a52.621,52.621,0,0,0,22.619-2.879,28.782,28.782,0,0,0,9.2-4.65c1.986-1.642-.858-4.457-2.828-2.828a23.592,23.592,0,0,1-6.751,3.382,60,60,0,0,1-10.07,2.608A46.519,46.519,0,0,1,38.8,101.642a41.337,41.337,0,0,1-10.167-4.574c-2.169-1.4-4.177,2.061-2.019,3.454Z"/><path class="c" d="M27.627,96.8c-5.693.745-11.12,4.4-15.36,8.072A30.39,30.39,0,0,0,2.585,121.92a86.987,86.987,0,0,0-1.376,9.37,2.014,2.014,0,0,0,2,2,2.045,2.045,0,0,0,2-2c.715-6.7,1.756-13.732,5.8-19.335a30.894,30.894,0,0,1,8.838-7.738,32.51,32.51,0,0,1,4.551-2.4,19.3,19.3,0,0,1,1.867-.67c.3-.09.6-.174.906-.244.074-.017.886-.162.458-.106a2.066,2.066,0,0,0,2-2,2.011,2.011,0,0,0-2-2Z"/><path class="c" d="M83.034,173.748c1.408,9.072,2.932,18.126,4.4,27.189a2.014,2.014,0,0,0,2.46,1.4,2.048,2.048,0,0,0,1.4-2.46c-1.466-9.063-2.99-18.118-4.4-27.19a2.015,2.015,0,0,0-2.46-1.4,2.049,2.049,0,0,0-1.4,2.461Z"/><path class="c" d="M18.77,121.065c.4,10.513,1.7,20.938,2.768,31.4a2.058,2.058,0,0,0,2,2,2.014,2.014,0,0,0,2-2c-1.065-10.46-2.365-20.885-2.768-31.4-.1-2.566-4.1-2.578-4,0Z"/><path class="c" d="M18.694,200.942a198.66,198.66,0,0,0,4.792-26.392,2.01,2.01,0,0,0-2-2,2.051,2.051,0,0,0-2,2,194.006,194.006,0,0,1-4.649,25.329c-.677,2.487,3.181,3.548,3.857,1.063Z"/><path class="f" d="M89.3,120.372c1.514.444,3.115,2.754,3.773,4.143a44.352,44.352,0,0,1,3.78,25.448A27.136,27.136,0,0,1,92.4,161.881c-3.234,4.474-8.283,7.405-13.6,8.9a52.667,52.667,0,0,1-16.429,1.426c-4.352-.179-9.2-.855-11.907-4.269l-5.658-2.457c-.238-2.53-.364-5.184.666-7.507a9.817,9.817,0,0,1,4.827-4.714,14.232,14.232,0,0,1,3.549-1.119,22.118,22.118,0,0,1,.355-2.6,9.245,9.245,0,0,1-1.032-.5c-3.47-1.913-6.208-4.893-8.88-7.82l-5.929-6.494,4.136-4.537a2.666,2.666,0,0,1,1.218-.9,2.576,2.576,0,0,1,1.833.477,35.624,35.624,0,0,1,5.919,4.225c1.5-4.675,5.228-8.236,8.819-11.583l.508-.474,2.262.572c4.641,1.174,17.8.835,25.176-1.92Z"/><path class="a" d="M54.054,86.7c2.178-5.668,8.161-8.588,12.16-9.8,10.358-3.142,22.605,2.127,27.447,11.807,3.8,7.592,4.147,16.583-.087,23.2-1.383,2.161-5.237,6.184-3.747,8-8.765,4.3-30.536,3.919-28.281,1.19a10.4,10.4,0,0,1-4.81-2.828,16.094,16.094,0,0,1-3.239-5.7,36.279,36.279,0,0,1,.34-25.484Z"/><path class="c" d="M55.982,87.235c1.67-4.158,5.948-6.793,10.024-8.167a21.153,21.153,0,0,1,13.7.176,21.68,21.68,0,0,1,11.027,8.387,24.144,24.144,0,0,1,3.722,16.087,17.8,17.8,0,0,1-3.253,8.1c-1.551,2.12-3.565,4.319-3.712,7.075-.137,2.572,3.864,2.565,4,0a7.418,7.418,0,0,1,1.536-2.856C93.77,114.99,94.6,114,95.3,112.917a21.125,21.125,0,0,0,3.066-8.527A28.11,28.11,0,0,0,94.373,85.9c-5.91-9.356-18.3-14.19-28.933-10.853-5.742,1.8-11.012,5.388-13.315,11.123a2.014,2.014,0,0,0,1.4,2.461,2.049,2.049,0,0,0,2.46-1.4Z"/><path class="c" d="M51.909,86.556a38.343,38.343,0,0,0-1.091,24.238c1.042,3.627,2.575,7.467,5.61,9.883a12.77,12.77,0,0,0,10.39,2.517c2.528-.465,1.457-4.321-1.063-3.857a8.54,8.54,0,0,1-7.6-2.486c-2.21-2.313-3.209-5.792-3.919-8.828a34.684,34.684,0,0,1,1.535-20.4,2.015,2.015,0,0,0-1.4-2.46,2.045,2.045,0,0,0-2.46,1.4Z"/><path class="c" d="M58.874,120.993c-3.845,3.588-7.621,7.368-9.333,12.466l3.343-.882a41.659,41.659,0,0,0-4.005-3.1c-1.288-.871-2.813-2.041-4.407-2.185-1.8-.163-2.894.94-4.023,2.179l-3.5,3.838a2.05,2.05,0,0,0,0,2.829c2.359,2.584,4.7,5.183,7.08,7.749a37.294,37.294,0,0,0,7.043,6.227,9.579,9.579,0,0,0,4.422,1.748,6.135,6.135,0,0,0,4.217-1.643,11.155,11.155,0,0,0,2.247-2.189c.533-.752.922-1.612,1.4-2.4,1.332-2.211-2.125-4.224-3.454-2.019-.408.677-.76,1.386-1.168,2.063,0,0-.283.392-.131.2s-.25.242-.233.227c-.342.311-.68.624-1.039.918-.9.74-1.516,1.055-2.641.553a15.408,15.408,0,0,1-3.245-2.089,49.514,49.514,0,0,1-5.452-5.367q-3.111-3.4-6.215-6.809v2.829l2.545-2.792c.424-.465.846-.932,1.272-1.4.23-.25.558-.644.6-.649.336-.039,1.232.707,1.52.886q.774.482,1.522,1a32.9,32.9,0,0,1,2.819,2.213,2.028,2.028,0,0,0,3.343-.882c1.473-4.386,5.012-7.629,8.3-10.7,1.886-1.76-.947-4.584-2.828-2.829Z"/><path class="c" d="M63.673,151.3a12.382,12.382,0,0,0-7.625-1.446,17.5,17.5,0,0,0-7.611,2.127,11.489,11.489,0,0,0-4.893,5.457,16.822,16.822,0,0,0-.737,8.038,2.054,2.054,0,0,0,2,2,2.015,2.015,0,0,0,2-2,14.51,14.51,0,0,1,.36-6.388,7.384,7.384,0,0,1,3.289-3.654,12.957,12.957,0,0,1,5.592-1.58c1.914-.141,3.935-.164,5.606.9,2.177,1.388,4.186-2.073,2.019-3.454Z"/><path class="a" d="M43.664,127.654a4.971,4.971,0,0,0-.431-3.5,2.123,2.123,0,0,0-2.135-1.322c-.7.17-1.126.867-1.472,1.5-1.83-1.195-4.175-2.043-6.178-1.168a4.993,4.993,0,0,0-2.37,6.047,7.6,7.6,0,0,0,5.116,4.568Z"/><path class="c" d="M45.593,128.186c.492-2.177.08-4.855-1.7-6.379a3.666,3.666,0,0,0-3.5-.855,4.6,4.6,0,0,0-2.5,2.368l2.737-.717c-2.076-1.332-4.68-2.25-7.148-1.572a6.451,6.451,0,0,0-4.4,4.607c-1.271,4.7,2.316,8.719,6.577,10.066a2.017,2.017,0,0,0,2.46-1.4,2.043,2.043,0,0,0-1.4-2.46q-.306-.1-.606-.209c-.133-.052-.115-.043.052.026-.085-.037-.168-.076-.251-.116a8.7,8.7,0,0,1-1.042-.591c-.067-.044-.493-.359-.189-.119-.143-.113-.282-.233-.416-.357a6.424,6.424,0,0,1-.743-.795c.246.318-.111-.191-.153-.26-.094-.154-.178-.313-.262-.473q-.09-.194.016.065-.069-.169-.126-.342-.078-.237-.132-.48c-.029-.129-.026-.561-.03-.125,0-.166-.021-.334-.02-.5s.014-.334.026-.5c-.034.491.025-.094.052-.207.039-.163.092-.319.138-.479q.038-.118.084-.234-.144.336,0,.027c.084-.141.154-.288.243-.426.063-.1.376-.432.075-.116.11-.116.229-.23.337-.348.285-.31-.236.107.1-.086.142-.081.278-.169.425-.243-.35.177.245-.07.341-.094a2.86,2.86,0,0,1,.292-.063q-.257.03-.039.012c.234-.014.464-.006.7,0,.407.011-.163-.067.27.039.2.049.4.092.6.151s.395.128.59.2q.339.132.1.043l.19.089c.43.23.854.456,1.266.72a2.021,2.021,0,0,0,2.736-.717,6.982,6.982,0,0,1,.379-.634c-.113.163-.073.091.033-.019-.138.142-.157.042.013-.006a.974.974,0,0,1-.681.019c.13.035.211.133.04-.006.037.03.358.38.221.208-.089-.111.254.469.226.4-.048-.112.071.22.082.259.041.136.073.273.105.411.077.333-.009-.241.02.1.012.141.016.282.016.424,0,.036-.011.416,0,.263s-.071.357-.073.362a2,2,0,0,0,3.858,1.063Z"/><path class="c" d="M88.77,122.3c.847.308,1.516,1.4,1.969,2.126a20.6,20.6,0,0,1,1.631,3.462,44.635,44.635,0,0,1,2.374,8.511,39.733,39.733,0,0,1-.7,17.232,20.366,20.366,0,0,1-9.344,12.5c-5.025,2.97-10.873,3.977-16.638,4.132a52.385,52.385,0,0,1-9.21-.355c-2.668-.405-5.2-1.254-6.971-3.388-1.642-1.985-4.458.859-2.828,2.829,3.946,4.769,10.958,4.9,16.637,4.938,6.732.04,13.591-.824,19.644-3.937A24.267,24.267,0,0,0,97.255,156.74a42.274,42.274,0,0,0,1.555-20.093A45.2,45.2,0,0,0,95.9,126.005c-1.223-2.98-2.819-6.384-6.065-7.561-2.424-.879-3.468,2.985-1.063,3.857Z"/><path class="c" d="M68.557,100.023l-2.266-.007a2.054,2.054,0,0,0-2,2,2.02,2.02,0,0,0,.586,1.414,2.083,2.083,0,0,0,1.414.586l2.266.007a2.059,2.059,0,0,0,2-2,2.025,2.025,0,0,0-.586-1.415,2.084,2.084,0,0,0-1.414-.585Z"/><path class="c" d="M56.079,100.356a4.343,4.343,0,0,1-.587.124l.532-.071a4.276,4.276,0,0,1-1.09,0l.531.071c-.07-.009-.139-.02-.209-.033a1.522,1.522,0,0,0-.8-.036,2.057,2.057,0,0,0-1.663,1.433l-.071.532A1.987,1.987,0,0,0,53,103.387l.312.405a2,2,0,0,0,.883.514,6.1,6.1,0,0,0,2.949-.092,2.233,2.233,0,0,0,1.2-.92,1.477,1.477,0,0,0,.238-.743,1.526,1.526,0,0,0-.036-.8l-.2-.477a2.006,2.006,0,0,0-.717-.718l-.478-.2a2.018,2.018,0,0,0-1.063,0Z"/><path class="c" d="M61.229,110.978a1.945,1.945,0,0,0-.375-.095,7.058,7.058,0,0,0-.941-.107,3.064,3.064,0,0,0-.406.017c-.23.025-.461.053-.688.094a1.4,1.4,0,0,0-.17.04,1.928,1.928,0,0,0-1.433,1.663,1.523,1.523,0,0,0,.036.8l.2.478a2.011,2.011,0,0,0,.717.717l.478.2a2.018,2.018,0,0,0,1.063,0,1.72,1.72,0,0,1,.266-.055l-.532.071a3.178,3.178,0,0,1,.821,0l-.532-.071a1.936,1.936,0,0,1,.431.1,1.511,1.511,0,0,0,.8.035,1.492,1.492,0,0,0,.744-.237,2.238,2.238,0,0,0,.919-1.2l.071-.532a1.987,1.987,0,0,0-.273-1.009l-.312-.405a2,2,0,0,0-.883-.515Z"/><path class="c" d="M83.134,104.743a4,4,0,0,1,.389-.255c.3-.178-.161.009.046-.01s.318-.07.038-.043c.17-.016.332-.006.5-.011l-.2-.033a2.931,2.931,0,0,1,.321.075c.344.06-.11-.1.044.009.3.209.166-.034.045-.016.072-.011.418.5.076.024.2.284.011-.132.046.054.021.109.125.287.1.4-.027-.237-.031-.277-.014-.12.01.088.019.176.027.263.014.146.025.292.035.439.022.319.033.639.028.959,0,.145-.008.289-.017.433,0,.062-.067.6-.025.336.043-.279-.041.192-.053.245q-.055.255-.13.5c-.043.14-.095.277-.144.415s-.042.111.026-.066l-.08.162c-.149.262-.291.525-.461.775-.12.176-.193.23-.017.036-.108.119-.209.24-.322.354-.1.1-.208.183-.3.28-.174.173.224-.12-.035.023-.12.066-.606.443-.741.4l.194-.081c-.073.03-.146.058-.219.085-.122.045-.244.087-.367.126a5.965,5.965,0,0,1-.822.2,2.008,2.008,0,0,0-1.4,2.46,2.059,2.059,0,0,0,2.461,1.4,7.972,7.972,0,0,0,6.437-7.647c.112-1.8-.024-4.092-1.51-5.327a4.944,4.944,0,0,0-5.973-.3,2.053,2.053,0,0,0-.718,2.737,2.021,2.021,0,0,0,2.737.717Z"/><path class="c" d="M63.139,82.587c-.032.086-.065.171-.1.255l.2-.477a6.02,6.02,0,0,1-.776,1.32l.313-.405a6.253,6.253,0,0,1-1.089,1.08l.405-.313a6.06,6.06,0,0,1-1.275.747l.478-.2c-.152.064-.306.121-.463.173a2.117,2.117,0,0,0-1.2.919,2,2,0,0,0,.718,2.737,2.013,2.013,0,0,0,1.541.2A7.928,7.928,0,0,0,67,83.65a2,2,0,0,0-2.938-2.258l-.405.312a2,2,0,0,0-.514.883Z"/><path class="c" d="M68.981,84.731q.039.222.069.444l-.072-.531a7.726,7.726,0,0,1,.014,1.922l.072-.532A5.383,5.383,0,0,1,68.7,87.4l.2-.477a4.082,4.082,0,0,1-.486.83l.313-.405a3.517,3.517,0,0,1-.565.566l.4-.313a3.394,3.394,0,0,1-.7.41l.477-.2q-.13.054-.264.1a2.121,2.121,0,0,0-1.195.919,2,2,0,0,0,2.258,2.938,5.415,5.415,0,0,0,2.149-1.287A5.993,5.993,0,0,0,72.6,88.366a8.77,8.77,0,0,0,.24-4.7,2.007,2.007,0,0,0-.919-1.2,2,2,0,0,0-2.736.717,2.267,2.267,0,0,0-.2,1.541Z"/><path class="c" d="M62.526,124.435c3.888.946,8.135.817,12.1.584a49.842,49.842,0,0,0,14.144-2.505c2.4-.877,1.362-4.745-1.063-3.857a45.945,45.945,0,0,1-13.081,2.362c-3.627.214-7.645.383-11.032-.442-2.5-.608-3.568,3.248-1.064,3.858Z"/><path class="a" d="M92.726,141.328c-1.638-4.544-4.459-12.521-6.243-13.182a10.294,10.294,0,0,0-2.343-.1,1.455,1.455,0,0,0-1.048.615c-1.738,2.018-1.014,4.019-.024,6.386a40.642,40.642,0,0,1-7.785-3.041c-2.46-1.252-6.075-3.574-7.452-1.985a3.059,3.059,0,0,0-2.524,4.1c-.832,1.067-.64,2.583-.175,4.144,2.518,8.461,7.089,10.761,15.607,13.153a47.365,47.365,0,0,1,4.266,2.6"/><path class="a" d="M51.654,164.253a9.939,9.939,0,0,0,5.972-.12,44.065,44.065,0,0,0,5.85-2.72,61.464,61.464,0,0,1,5.77-2.48,5.233,5.233,0,0,1,3.86-.36c1.82.81,2.15,3.43,1.18,5.16s-2.8,2.77-4.55,3.72c1.75.06,3.51.79,5.58.18a30.922,30.922,0,0,0,6.51-2.45,8.172,8.172,0,0,1,3.16-1.26,2.892,2.892,0,0,1,2.9,1.41c.78,1.63-.71,3.4-2.07,4.61-3.66,3.25-7.41,6.56-11.93,8.45-4.52,1.87-10.03,2.09-14.06-.68-1.17-.8-2.21-1.84-3.58-2.2-1.18-.33-4.271.224-5.481.444"/><path class="c" d="M84.148,151.094a17.684,17.684,0,0,0-4.737-2.137,37.349,37.349,0,0,1-3.946-1.387,14,14,0,0,1-5.718-4.16,14.91,14.91,0,0,1-1.963-3.548c-.565-1.424-1.445-3.277-.745-4.725.379-.783.053-1.389.106-2.164a1.046,1.046,0,0,1,.567-.907c.418-.218.9-.227,1.332-.478.48-.277.152-.119.058-.1a3.911,3.911,0,0,1,1.851.541c1.806.8,3.493,1.853,5.3,2.664a48.937,48.937,0,0,0,6.289,2.294c1.33.391,3.063-1.016,2.46-2.461a11.179,11.179,0,0,1-.943-2.791,2.266,2.266,0,0,1,.09-1.047,3.974,3.974,0,0,1,.362-.609q.486-.435-.135-.03c.419-.015.88.05,1.293-.007l.317.018q-.647-.257-.285-.059c-.2-.162-.22-.162-.042,0,.141.168.163.186.068.055.177.272.366.533.532.812a56.639,56.639,0,0,1,4.128,9.835c.87,2.4,4.737,1.365,3.857-1.064-.915-2.524-1.851-5.041-2.917-7.506-.762-1.762-1.6-3.89-3.084-5.187a5.269,5.269,0,0,0-6.561.3c-2.292,2.447-1.707,5.538-.537,8.34l2.46-2.461a47.775,47.775,0,0,1-8.992-3.731c-2.391-1.268-5.841-3.1-8.192-.789l1.414-.586a5.132,5.132,0,0,0-4.448,6.642l.2-1.541c-1.839,2.744-.3,6.465.912,9.171a16.44,16.44,0,0,0,4.069,5.677,20.869,20.869,0,0,0,6.032,3.544c1.174.477,2.376.882,3.586,1.254.625.192,1.481.364,1.99.58a16.237,16.237,0,0,1,1.955,1.2c2.168,1.4,4.176-2.06,2.019-3.453Z"/><path class="c" d="M53.65,166.622c5.407.333,10.055-3.373,14.871-5.278,1.251-.5,4.385-2.139,4.3.36-.069,2.034-2.561,3.186-4.092,4.021-1.835,1-.875,3.615,1.009,3.727,1.937.116,3.722.624,5.673.22a28.077,28.077,0,0,0,5.458-1.536c.567-.248,3.894-2.475,4.364-1.265.395,1.015-2.353,2.928-2.953,3.458-5.138,4.536-12,9.327-19.2,6.819-1.941-.675-3.281-2.247-5.1-3.1-1.987-.935-4.07-.6-6.169-.29a2.013,2.013,0,0,0-1.4,2.46,2.053,2.053,0,0,0,2.461,1.4,8.667,8.667,0,0,1,2.853-.185,6.446,6.446,0,0,1,2.158,1.324,14.259,14.259,0,0,0,5.785,2.7,19.958,19.958,0,0,0,12.763-2.028,43.076,43.076,0,0,0,10.236-7.653c1.564-1.491,3.085-3.659,2.425-5.937a4.79,4.79,0,0,0-5.228-3.194,9.912,9.912,0,0,0-3.718,1.391,11.518,11.518,0,0,1-3.2,1.143,15.092,15.092,0,0,1-3.54.7c-1.232-.024-2.441-.343-3.671-.417l1.009,3.727c2.517-1.373,5.3-3.169,5.922-6.188.588-2.849-.8-6.013-3.86-6.57a9.556,9.556,0,0,0-5.144.984q-2.435.952-4.8,2.085c-2.972,1.432-5.787,3.344-9.222,3.132-2.571-.158-2.562,3.842,0,4Z"/><path class="e" d="M50.377,178.408c-8.008-.012-13.427-.818-22.351-2.525l4-20.329c7.236,1.825,14.82,3.567,21.815,5.217.152,2.075-1.185,14.075-1.992,17.63Q51.1,178.409,50.377,178.408Z"/><path class="c" d="M1.209,131.29c-.419,6.324-.9,12.652-1.09,18.988-.137,4.451-.371,9.3.744,13.658a12.406,12.406,0,0,0,4.517,6.977c2.209,1.632,5.236,2.5,7.813,3.393a117.259,117.259,0,0,0,17.568,4.117,112.078,112.078,0,0,0,21.09,1.978,2.03,2.03,0,0,0,1.929-1.468,93.852,93.852,0,0,0,1.41-9.75,50.089,50.089,0,0,0,.653-8.412,2.052,2.052,0,0,0-1.468-1.928c-11.122-2.622-22.289-5.114-33.268-8.3-2.477-.718-3.535,3.14-1.063,3.857,10.979,3.182,22.146,5.674,33.267,8.3l-1.468-1.929a48.579,48.579,0,0,1-.619,8.108,85.284,85.284,0,0,1-1.3,8.99l1.928-1.468a99.261,99.261,0,0,1-17.444-1.381,148.57,148.57,0,0,1-17.339-3.668,70.2,70.2,0,0,1-7.416-2.679,7.742,7.742,0,0,1-4.6-4.691c-1.4-3.9-1.064-8.633-.965-12.705.162-6.67.677-13.331,1.118-19.987.171-2.57-3.83-2.559-4,0Z"/><path class="e" d="M105.7,166.343c-3.876.744-8.812.366-11.852-1.611-4.459-2.856-10.37-9.442-13.037-12.257,2.364-3.295,10.146-10.034,12.815-12.863,1.233,1.12,2.518,2.051,4.963,4.028Z"/><path class="c" d="M93.121,111.614c8.207,8.087,12.84,19.422,15.018,30.575a58.223,58.223,0,0,1,1.074,16.937c-.217,2.077-1.6,4.614-3.733,5.216a15.627,15.627,0,0,1-8.5-.348c-3.209-1.025-5.929-3.86-8.306-6.136a88.027,88.027,0,0,1-6.44-6.8l.313,2.424a32.016,32.016,0,0,1,2.416-2.7c1.2-1.233,2.438-2.427,3.684-3.611,2.139-2.034,4.362-4,6.4-6.14H92.211c1.593,1.418,3.311,2.694,4.97,4.03a2.061,2.061,0,0,0,2.829,0,2.014,2.014,0,0,0,0-2.828c-1.66-1.337-3.377-2.613-4.97-4.03a2.036,2.036,0,0,0-2.829,0c-4.266,4.485-9.448,8.241-13.122,13.265a2.027,2.027,0,0,0,.312,2.423,88.35,88.35,0,0,0,6.143,6.516c2.481,2.4,5.222,5.142,8.365,6.649a19.1,19.1,0,0,0,10.1,1.538,9.792,9.792,0,0,0,4.583-1.326,10.346,10.346,0,0,0,3.166-3.423c1.549-2.652,1.592-5.652,1.614-8.642a68.3,68.3,0,0,0-.661-9.669,74.363,74.363,0,0,0-5.091-18.8A54.611,54.611,0,0,0,95.95,108.786c-1.835-1.808-4.666,1.018-2.829,2.828Z"/><path class="c" d="M48.758,70.948a11.9,11.9,0,0,0,5.726,1.337A9.442,9.442,0,0,0,60.379,70.5a2,2,0,0,0,.586-1.414,2.032,2.032,0,0,0-.586-1.414,2.062,2.062,0,0,0-2.829,0c.693-.54-.012-.02-.23.094-.169.089-.617.229.017.012-.155.053-.306.117-.463.168-.421.135-.881.158-1.3.3.211-.071.334-.041.033-.011-.127.013-.254.023-.381.032q-.461.028-.921.025-.413,0-.825-.029c-.126-.009-.252-.019-.378-.032l-.215-.023c-.157-.02-.094-.011.19.025,0,.022-1.1-.237-1.21-.269-.17-.051-.335-.112-.5-.169-.444-.152.427.2.023.013q-.31-.146-.615-.307a2,2,0,0,0-2.019,3.454Z"/><path class="c" d="M53.2,57.809a25.426,25.426,0,0,1,.6,2.742l-.071-.532a1.658,1.658,0,0,1,.01.379l.071-.532a1.013,1.013,0,0,1-.041.171l.2-.478a.642.642,0,0,1-.06.109l.313-.4a.577.577,0,0,1-.09.088l.405-.313a1.607,1.607,0,0,1-.217.115l.478-.2a1.623,1.623,0,0,1-.367.106l.532-.071a1.414,1.414,0,0,1-.344,0l.532.072c-.129-.018-.257-.05-.386-.067a1.506,1.506,0,0,0-.8-.036,1.486,1.486,0,0,0-.743.237,2,2,0,0,0-.718,2.737l.313.4a2,2,0,0,0,.882.515c.348.047.685.133,1.039.149a3.422,3.422,0,0,0,1.6-.39,2.435,2.435,0,0,0,1.311-1.59,3.722,3.722,0,0,0-.013-1.647c-.149-.884-.353-1.759-.58-2.626a2,2,0,0,0-2.461-1.4,2.028,2.028,0,0,0-1.2.919,2.112,2.112,0,0,0-.2,1.542Z"/><path class="c" d="M39.269,49.884c-.458,1.488-.159,4.912,2.66,5.2,3.727-.022,3.926-4.162,2.671-6.108C43.573,47.385,40.552,46.723,39.269,49.884Z"/><path class="c" d="M69.114,49.884c.458,1.488.159,4.912-2.66,5.2-3.727-.022-3.926-4.162-2.671-6.108C64.81,47.385,67.83,46.723,69.114,49.884Z"/></svg>