<?xml version="1.0" encoding="iso-8859-1"?>
<!-- Uploaded to: SVG Repo, www.svgrepo.com, Generator: SVG Repo Mixer Tools -->
<svg height="800px" width="800px" version="1.1" id="Layer_1" xmlns="http://www.w3.org/2000/svg" xmlns:xlink="http://www.w3.org/1999/xlink" 
	 viewBox="0 0 512 512" xml:space="preserve">
<path style="fill:#E09B2D;" d="M350.457,29.286v106.751h-58.559V29.286c0-16.173,13.1-29.286,29.273-29.286
	c2.167,0,4.27,0.239,6.298,0.68C340.62,3.565,350.457,15.279,350.457,29.286z"/>
<path style="fill:#F7B239;" d="M350.457,29.286v106.751h-45.963V29.286c0-14.007,9.837-25.721,22.975-28.605
	C340.62,3.565,350.457,15.279,350.457,29.286z"/>
<path style="fill:#2197D8;" d="M370.56,455.356l-0.378,35.382C369.779,502.603,360.043,512,348.177,512H163.823
	c-11.865,0-21.602-9.397-22.005-21.262l-0.378-35.382H370.56z"/>
<g>
	<path style="fill:#2BA5F7;" d="M406.383,339.927l-5.177,117.848c-0.542,12.369-10.732,22.106-23.101,22.106h-7.545H141.44h-7.545
		c-12.382,0-22.559-9.737-23.101-22.106l-5.177-117.835c0,0,99.722-13.062,155.421-13.062
		C305.716,326.877,406.383,339.927,406.383,339.927z"/>
	<polygon style="fill:#2BA5F7;" points="415.339,136.036 415.15,140.445 414.318,159.339 410.111,255.055 269.856,319.32 
		101.876,255.055 97.669,159.339 96.838,140.445 96.649,136.036 	"/>
</g>
<path style="fill:#E6E6E6;" d="M410.111,255.055l-3.728,84.871c-8.276,6.676-16.992,12.785-26.061,18.289
	c-36.818,22.333-79.644,34.752-124.322,34.752c-55.699,0-108.501-19.297-150.383-53.029l-3.741-84.884L410.111,255.055
	L410.111,255.055z"/>
<path style="fill:#CCCCCC;" d="M177.275,379.68c-26.023-9.044-50.258-22.509-71.658-39.74l-3.741-84.884h69.907l3.741,84.884
	L177.275,379.68z"/>
<g>
	<path style="fill:#2197D8;" d="M203.802,479.88h-69.907c-12.382,0-22.559-9.737-23.101-22.106l-5.177-117.835
		c21.401,17.231,45.635,30.696,71.658,39.74l3.426,78.095C181.243,470.144,191.421,479.88,203.802,479.88z"/>
	<polygon style="fill:#2197D8;" points="171.784,255.055 101.876,255.055 96.649,136.036 166.556,136.036 	"/>
	<polygon style="fill:#2197D8;" points="415.15,140.445 414.318,159.339 97.669,159.339 96.838,140.445 	"/>
</g>
<path style="fill:#E6E6E6;" d="M471.378,145.483H40.622c-5.219,0-9.447-4.23-9.447-9.447s4.228-9.447,9.447-9.447h430.756
	c5.219,0,9.447,4.23,9.447,9.447S476.597,145.483,471.378,145.483z"/>
</svg>